<?xml version="1.0" encoding="utf-8"?>
<!-- Generator: Adobe Illustrator 23.0.3, SVG Export Plug-In . SVG Version: 6.00 Build 0)  -->
<svg version="1.1" baseProfile="tiny" id="Camada_1"
	 xmlns="http://www.w3.org/2000/svg" xmlns:xlink="http://www.w3.org/1999/xlink" x="0px" y="0px" viewBox="0 0 58 69.6"
	 xml:space="preserve">
<path d="M57.6,22c0.2,0,0.3-0.1,0.3-0.3c0-0.2-0.1-0.3-0.3-0.3c-0.2,0-0.3,0.1-0.3,0.3C57.3,21.8,57.5,22,57.6,22z"/>
<path d="M57,23.8c0.2,0,0.3-0.1,0.3-0.3c0-0.2-0.1-0.3-0.3-0.3c-0.2,0-0.3,0.1-0.3,0.3C56.7,23.6,56.9,23.8,57,23.8z"/>
<path d="M56.2,22.6c0.2,0,0.3-0.1,0.3-0.3c0-0.2-0.1-0.3-0.3-0.3c-0.2,0-0.3,0.1-0.3,0.3C55.9,22.5,56.1,22.6,56.2,22.6z"/>
<path d="M55.5,21.5c0.2,0,0.3-0.1,0.3-0.3c0-0.2-0.1-0.3-0.3-0.3c-0.2,0-0.3,0.1-0.3,0.3C55.1,21.3,55.3,21.5,55.5,21.5z"/>
<path d="M54.7,20.3c0.2,0,0.3-0.1,0.3-0.3c0-0.2-0.1-0.3-0.3-0.3c-0.2,0-0.3,0.1-0.3,0.3C54.4,20.2,54.6,20.3,54.7,20.3z"/>
<path d="M56.4,25.6c0.2,0,0.3-0.1,0.3-0.3c0-0.2-0.1-0.3-0.3-0.3c-0.2,0-0.3,0.1-0.3,0.3C56.1,25.4,56.3,25.6,56.4,25.6z"/>
<path d="M55.6,24.5c0.2,0,0.3-0.1,0.3-0.3c0-0.2-0.1-0.3-0.3-0.3c-0.2,0-0.3,0.1-0.3,0.3C55.3,24.3,55.4,24.5,55.6,24.5z"/>
<path d="M54.8,23.3c0.2,0,0.3-0.1,0.3-0.3c0-0.2-0.1-0.3-0.3-0.3c-0.2,0-0.3,0.1-0.3,0.3C54.5,23.2,54.6,23.3,54.8,23.3z"/>
<path d="M54.1,22.2c0.2,0,0.3-0.1,0.3-0.3c0-0.2-0.1-0.3-0.3-0.3c-0.2,0-0.3,0.1-0.3,0.3C53.7,22,53.9,22.2,54.1,22.2z"/>
<circle cx="53.3" cy="20.6" r="0.3"/>
<path d="M52.6,19.8c0.2,0,0.3-0.1,0.3-0.3c0-0.2-0.1-0.3-0.3-0.3c-0.2,0-0.3,0.1-0.3,0.3C52.3,19.6,52.5,19.8,52.6,19.8z"/>
<path d="M55.9,27.4c0.2,0,0.3-0.1,0.3-0.3c0-0.2-0.1-0.3-0.3-0.3c-0.2,0-0.3,0.1-0.3,0.3C55.5,27.2,55.7,27.4,55.9,27.4z"/>
<path d="M55,26.3c0.2,0,0.3-0.1,0.3-0.3c0-0.2-0.1-0.3-0.3-0.3c-0.2,0-0.3,0.1-0.3,0.3C54.7,26.1,54.8,26.3,55,26.3z"/>
<circle cx="54.2" cy="24.8" r="0.3"/>
<path d="M53.4,24c0.2,0,0.3-0.1,0.3-0.3c0-0.2-0.1-0.3-0.3-0.3c-0.2,0-0.3,0.1-0.3,0.3C53.1,23.9,53.2,24,53.4,24z"/>
<path d="M52.7,22.8c0.2,0,0.3-0.1,0.3-0.3c0-0.2-0.1-0.3-0.3-0.3c-0.2,0-0.3,0.1-0.3,0.3C52.3,22.7,52.5,22.8,52.7,22.8z"/>
<path d="M51.9,21.7c0.2,0,0.3-0.1,0.3-0.3c0-0.2-0.1-0.3-0.3-0.3c-0.2,0-0.3,0.1-0.3,0.3C51.6,21.5,51.8,21.7,51.9,21.7z"/>
<path d="M51.3,20.4c0.2,0,0.3-0.1,0.3-0.3c0-0.2-0.1-0.3-0.3-0.3c-0.2,0-0.3,0.1-0.3,0.3C50.9,20.3,51.1,20.4,51.3,20.4z"/>
<path d="M50.6,19.2c0.2,0,0.3-0.1,0.3-0.3c0-0.2-0.1-0.3-0.3-0.3c-0.2,0-0.3,0.1-0.3,0.3C50.3,19.1,50.4,19.2,50.6,19.2z"/>
<path d="M54.5,28.1c0.2,0,0.3-0.1,0.3-0.3c0-0.2-0.1-0.3-0.3-0.3c-0.2,0-0.3,0.1-0.3,0.3C54.1,27.9,54.3,28.1,54.5,28.1z"/>
<path d="M53.6,27c0.2,0,0.3-0.1,0.3-0.3c0-0.2-0.1-0.3-0.3-0.3c-0.2,0-0.3,0.1-0.3,0.3C53.3,26.8,53.4,27,53.6,27z"/>
<path d="M52.8,25.8c0.2,0,0.3-0.1,0.3-0.3c0-0.2-0.1-0.3-0.3-0.3c-0.2,0-0.3,0.1-0.3,0.3C52.5,25.7,52.6,25.8,52.8,25.8z"/>
<path d="M52,24.7c0.2,0,0.3-0.1,0.3-0.3c0-0.2-0.1-0.3-0.3-0.3c-0.2,0-0.3,0.1-0.3,0.3C51.7,24.5,51.8,24.7,52,24.7z"/>
<path d="M51.3,23.5c0.2,0,0.3-0.1,0.3-0.3c0-0.2-0.1-0.3-0.3-0.3c-0.2,0-0.3,0.1-0.3,0.3C50.9,23.4,51.1,23.5,51.3,23.5z"/>
<path d="M50.5,22.3c0.2,0,0.3-0.1,0.3-0.3c0-0.2-0.1-0.3-0.3-0.3c-0.2,0-0.3,0.1-0.3,0.3C50.2,22.2,50.4,22.3,50.5,22.3z"/>
<path d="M49.9,21.1c0.2,0,0.3-0.1,0.3-0.3c0-0.2-0.1-0.3-0.3-0.3c-0.2,0-0.3,0.1-0.3,0.3C49.5,21,49.7,21.1,49.9,21.1z"/>
<path d="M49.2,19.9c0.2,0,0.3-0.1,0.3-0.3c0-0.2-0.1-0.3-0.3-0.3c-0.2,0-0.3,0.1-0.3,0.3C48.9,19.7,49,19.9,49.2,19.9z"/>
<path d="M48.6,18.7c0.2,0,0.3-0.1,0.3-0.3c0-0.2-0.1-0.3-0.3-0.3c-0.2,0-0.3,0.1-0.3,0.3C48.3,18.5,48.4,18.7,48.6,18.7z"/>
<path d="M48,17.4c0.2,0,0.3-0.1,0.3-0.3c0-0.2-0.1-0.3-0.3-0.3c-0.2,0-0.3,0.1-0.3,0.3C47.7,17.2,47.8,17.4,48,17.4z"/>
<path d="M53.9,29.8c0.2,0,0.3-0.1,0.3-0.3c0-0.2-0.1-0.3-0.3-0.3c-0.2,0-0.3,0.1-0.3,0.3C53.6,29.7,53.7,29.8,53.9,29.8z"/>
<path d="M53,28.8c0.2,0,0.3-0.1,0.3-0.3c0-0.2-0.1-0.3-0.3-0.3c-0.2,0-0.3,0.1-0.3,0.3C52.7,28.6,52.8,28.8,53,28.8z"/>
<path d="M52.2,27.6c0.2,0,0.3-0.1,0.3-0.3c0-0.2-0.1-0.3-0.3-0.3c-0.2,0-0.3,0.1-0.3,0.3C51.9,27.5,52,27.6,52.2,27.6z"/>
<path d="M51.4,26.5c0.2,0,0.3-0.1,0.3-0.3c0-0.2-0.1-0.3-0.3-0.3c-0.2,0-0.3,0.1-0.3,0.3C51.1,26.4,51.2,26.5,51.4,26.5z"/>
<circle cx="50.6" cy="25" r="0.3"/>
<path d="M49.9,24.2c0.2,0,0.3-0.1,0.3-0.3c0-0.2-0.1-0.3-0.3-0.3c-0.2,0-0.3,0.1-0.3,0.3C49.5,24,49.7,24.2,49.9,24.2z"/>
<path d="M49.1,23c0.2,0,0.3-0.1,0.3-0.3c0-0.2-0.1-0.3-0.3-0.3c-0.2,0-0.3,0.1-0.3,0.3C48.8,22.9,49,23,49.1,23z"/>
<path d="M48.5,21.8c0.2,0,0.3-0.1,0.3-0.3c0-0.2-0.1-0.3-0.3-0.3c-0.2,0-0.3,0.1-0.3,0.3C48.1,21.6,48.3,21.8,48.5,21.8z"/>
<path d="M47.8,20.6c0.2,0,0.3-0.1,0.3-0.3c0-0.2-0.1-0.3-0.3-0.3c-0.2,0-0.3,0.1-0.3,0.3C47.5,20.4,47.6,20.6,47.8,20.6z"/>
<path d="M47.2,19.3c0.2,0,0.3-0.1,0.3-0.3c0-0.2-0.1-0.3-0.3-0.3c-0.2,0-0.3,0.1-0.3,0.3C46.9,19.2,47,19.3,47.2,19.3z"/>
<path d="M46.6,18.1c0.2,0,0.3-0.1,0.3-0.3c0-0.2-0.1-0.3-0.3-0.3c-0.2,0-0.3,0.1-0.3,0.3C46.3,17.9,46.4,18.1,46.6,18.1z"/>
<circle cx="45" cy="13.9" r="0.3"/>
<path d="M54.3,32.6c0.2,0,0.3-0.1,0.3-0.3c0-0.2-0.1-0.3-0.3-0.3c-0.2,0-0.3,0.1-0.3,0.3C53.9,32.5,54.1,32.6,54.3,32.6z"/>
<path d="M53.4,31.6c0.2,0,0.3-0.1,0.3-0.3c0-0.2-0.1-0.3-0.3-0.3c-0.2,0-0.3,0.1-0.3,0.3C53,31.5,53.2,31.6,53.4,31.6z"/>
<path d="M52.5,30.5c0.2,0,0.3-0.1,0.3-0.3c0-0.2-0.1-0.3-0.3-0.3c-0.2,0-0.3,0.1-0.3,0.3C52.1,30.4,52.3,30.5,52.5,30.5z"/>
<path d="M51.6,29.4c0.2,0,0.3-0.1,0.3-0.3c0-0.2-0.1-0.3-0.3-0.3c-0.2,0-0.3,0.1-0.3,0.3C51.3,29.3,51.4,29.4,51.6,29.4z"/>
<path d="M50.8,28.3c0.2,0,0.3-0.1,0.3-0.3c0-0.2-0.1-0.3-0.3-0.3c-0.2,0-0.3,0.1-0.3,0.3C50.4,28.2,50.6,28.3,50.8,28.3z"/>
<circle cx="50" cy="26.9" r="0.3"/>
<path d="M49.2,26c0.2,0,0.3-0.1,0.3-0.3c0-0.2-0.1-0.3-0.3-0.3c-0.2,0-0.3,0.1-0.3,0.3C48.9,25.9,49,26,49.2,26z"/>
<path d="M48.5,24.9c0.2,0,0.3-0.1,0.3-0.3c0-0.2-0.1-0.3-0.3-0.3c-0.2,0-0.3,0.1-0.3,0.3C48.1,24.7,48.3,24.9,48.5,24.9z"/>
<path d="M47.7,23.7c0.2,0,0.3-0.1,0.3-0.3c0-0.2-0.1-0.3-0.3-0.3c-0.2,0-0.3,0.1-0.3,0.3C47.4,23.5,47.6,23.7,47.7,23.7z"/>
<circle cx="47.1" cy="22.1" r="0.3"/>
<path d="M46.4,21.2c0.2,0,0.3-0.1,0.3-0.3c0-0.2-0.1-0.3-0.3-0.3c-0.2,0-0.3,0.1-0.3,0.3C46.1,21.1,46.2,21.2,46.4,21.2z"/>
<path d="M45.8,20c0.2,0,0.3-0.1,0.3-0.3c0-0.2-0.1-0.3-0.3-0.3c-0.2,0-0.3,0.1-0.3,0.3C45.5,19.8,45.6,20,45.8,20z"/>
<path d="M45.2,18.7c0.2,0,0.3-0.1,0.3-0.3c0-0.2-0.1-0.3-0.3-0.3c-0.2,0-0.3,0.1-0.3,0.3C44.9,18.6,45,18.7,45.2,18.7z"/>
<path d="M44.7,17.5c0.2,0,0.3-0.1,0.3-0.3c0-0.2-0.1-0.3-0.3-0.3c-0.2,0-0.3,0.1-0.3,0.3C44.3,17.3,44.5,17.5,44.7,17.5z"/>
<path d="M44.1,16.2c0.2,0,0.3-0.1,0.3-0.3c0-0.2-0.1-0.3-0.3-0.3c-0.2,0-0.3,0.1-0.3,0.3C43.8,16,44,16.2,44.1,16.2z"/>
<path d="M43.6,14.9c0.2,0,0.3-0.1,0.3-0.3c0-0.2-0.1-0.3-0.3-0.3c-0.2,0-0.3,0.1-0.3,0.3C43.3,14.7,43.5,14.9,43.6,14.9z"/>
<path d="M43.2,13.6c0.2,0,0.3-0.1,0.3-0.3c0-0.2-0.1-0.3-0.3-0.3s-0.3,0.1-0.3,0.3C42.9,13.4,43,13.6,43.2,13.6z"/>
<path d="M52.8,33.4c0.2,0,0.3-0.1,0.3-0.3c0-0.2-0.1-0.3-0.3-0.3c-0.2,0-0.3,0.1-0.3,0.3C52.5,33.2,52.6,33.4,52.8,33.4z"/>
<path d="M51.9,32.3c0.2,0,0.3-0.1,0.3-0.3c0-0.2-0.1-0.3-0.3-0.3c-0.2,0-0.3,0.1-0.3,0.3C51.6,32.2,51.7,32.3,51.9,32.3z"/>
<path d="M51,31.2c0.2,0,0.3-0.1,0.3-0.3c0-0.2-0.1-0.3-0.3-0.3c-0.2,0-0.3,0.1-0.3,0.3C50.7,31.1,50.9,31.2,51,31.2z"/>
<path d="M50.2,30.1c0.2,0,0.3-0.1,0.3-0.3c0-0.2-0.1-0.3-0.3-0.3c-0.2,0-0.3,0.1-0.3,0.3C49.9,30,50,30.1,50.2,30.1z"/>
<path d="M49.4,29c0.2,0,0.3-0.1,0.3-0.3c0-0.2-0.1-0.3-0.3-0.3c-0.2,0-0.3,0.1-0.3,0.3C49,28.9,49.2,29,49.4,29z"/>
<path d="M48.6,27.9c0.2,0,0.3-0.1,0.3-0.3c0-0.2-0.1-0.3-0.3-0.3c-0.2,0-0.3,0.1-0.3,0.3C48.2,27.7,48.4,27.9,48.6,27.9z"/>
<path d="M47.8,26.7c0.2,0,0.3-0.1,0.3-0.3s-0.1-0.3-0.3-0.3c-0.2,0-0.3,0.1-0.3,0.3S47.6,26.7,47.8,26.7z"/>
<path d="M47.1,25.5c0.2,0,0.3-0.1,0.3-0.3c0-0.2-0.1-0.3-0.3-0.3c-0.2,0-0.3,0.1-0.3,0.3C46.7,25.4,46.9,25.5,47.1,25.5z"/>
<path d="M46.3,24.3c0.2,0,0.3-0.1,0.3-0.3c0-0.2-0.1-0.3-0.3-0.3c-0.2,0-0.3,0.1-0.3,0.3C46,24.2,46.2,24.3,46.3,24.3z"/>
<path d="M45.7,23.1c0.2,0,0.3-0.1,0.3-0.3c0-0.2-0.1-0.3-0.3-0.3c-0.2,0-0.3,0.1-0.3,0.3C45.3,23,45.5,23.1,45.7,23.1z"/>
<path d="M45,21.9c0.2,0,0.3-0.1,0.3-0.3c0-0.2-0.1-0.3-0.3-0.3c-0.2,0-0.3,0.1-0.3,0.3C44.7,21.8,44.8,21.9,45,21.9z"/>
<path d="M44.4,20.7c0.2,0,0.3-0.1,0.3-0.3c0-0.2-0.1-0.3-0.3-0.3c-0.2,0-0.3,0.1-0.3,0.3C44.1,20.5,44.2,20.7,44.4,20.7z"/>
<path d="M43.8,19.4c0.2,0,0.3-0.1,0.3-0.3c0-0.2-0.1-0.3-0.3-0.3c-0.2,0-0.3,0.1-0.3,0.3C43.5,19.3,43.6,19.4,43.8,19.4z"/>
<path d="M43.3,18.1c0.2,0,0.3-0.1,0.3-0.3c0-0.2-0.1-0.3-0.3-0.3c-0.2,0-0.3,0.1-0.3,0.3C42.9,18,43.1,18.1,43.3,18.1z"/>
<path d="M42.7,16.8c0.2,0,0.3-0.1,0.3-0.3c0-0.2-0.1-0.3-0.3-0.3c-0.2,0-0.3,0.1-0.3,0.3C42.4,16.7,42.6,16.8,42.7,16.8z"/>
<circle cx="42.2" cy="15.2" r="0.3"/>
<path d="M41.8,14.2c0.2,0,0.3-0.1,0.3-0.3c0-0.2-0.1-0.3-0.3-0.3c-0.2,0-0.3,0.1-0.3,0.3C41.5,14.1,41.6,14.2,41.8,14.2z"/>
<path d="M41.4,12.9c0.2,0,0.3-0.1,0.3-0.3c0-0.2-0.1-0.3-0.3-0.3c-0.2,0-0.3,0.1-0.3,0.3C41,12.8,41.2,12.9,41.4,12.9z"/>
<circle cx="52.3" cy="34.8" r="0.3"/>
<path d="M51.4,34.1c0.2,0,0.3-0.1,0.3-0.3c0-0.2-0.1-0.3-0.3-0.3c-0.2,0-0.3,0.1-0.3,0.3C51.1,33.9,51.2,34.1,51.4,34.1z"/>
<path d="M50.5,33c0.2,0,0.3-0.1,0.3-0.3c0-0.2-0.1-0.3-0.3-0.3c-0.2,0-0.3,0.1-0.3,0.3C50.2,32.9,50.3,33,50.5,33z"/>
<path d="M49.6,31.9c0.2,0,0.3-0.1,0.3-0.3c0-0.2-0.1-0.3-0.3-0.3c-0.2,0-0.3,0.1-0.3,0.3C49.3,31.8,49.4,31.9,49.6,31.9z"/>
<path d="M48.8,30.8c0.2,0,0.3-0.1,0.3-0.3c0-0.2-0.1-0.3-0.3-0.3c-0.2,0-0.3,0.1-0.3,0.3C48.4,30.7,48.6,30.8,48.8,30.8z"/>
<circle cx="47.9" cy="29.4" r="0.3"/>
<circle cx="47.2" cy="28.2" r="0.3"/>
<path d="M46.4,27.4c0.2,0,0.3-0.1,0.3-0.3c0-0.2-0.1-0.3-0.3-0.3c-0.2,0-0.3,0.1-0.3,0.3C46.1,27.2,46.2,27.4,46.4,27.4z"/>
<path d="M45.7,26.2c0.2,0,0.3-0.1,0.3-0.3c0-0.2-0.1-0.3-0.3-0.3c-0.2,0-0.3,0.1-0.3,0.3C45.3,26.1,45.5,26.2,45.7,26.2z"/>
<path d="M45,25c0.2,0,0.3-0.1,0.3-0.3c0-0.2-0.1-0.3-0.3-0.3c-0.2,0-0.3,0.1-0.3,0.3C44.6,24.9,44.8,25,45,25z"/>
<path d="M44.3,23.8c0.2,0,0.3-0.1,0.3-0.3c0-0.2-0.1-0.3-0.3-0.3c-0.2,0-0.3,0.1-0.3,0.3C43.9,23.7,44.1,23.8,44.3,23.8z"/>
<path d="M43.6,22.6c0.2,0,0.3-0.1,0.3-0.3c0-0.2-0.1-0.3-0.3-0.3c-0.2,0-0.3,0.1-0.3,0.3C43.3,22.4,43.4,22.6,43.6,22.6z"/>
<path d="M43,21.3c0.2,0,0.3-0.1,0.3-0.3c0-0.2-0.1-0.3-0.3-0.3c-0.2,0-0.3,0.1-0.3,0.3C42.7,21.2,42.8,21.3,43,21.3z"/>
<path d="M42.4,20.1c0.2,0,0.3-0.1,0.3-0.3c0-0.2-0.1-0.3-0.3-0.3c-0.2,0-0.3,0.1-0.3,0.3C42.1,19.9,42.2,20.1,42.4,20.1z"/>
<path d="M41.9,18.8c0.2,0,0.3-0.1,0.3-0.3c0-0.2-0.1-0.3-0.3-0.3c-0.2,0-0.3,0.1-0.3,0.3C41.5,18.7,41.7,18.8,41.9,18.8z"/>
<path d="M41.3,17.5c0.2,0,0.3-0.1,0.3-0.3c0-0.2-0.1-0.3-0.3-0.3c-0.2,0-0.3,0.1-0.3,0.3C41,17.4,41.2,17.5,41.3,17.5z"/>
<path d="M40.8,16.2c0.2,0,0.3-0.1,0.3-0.3c0-0.2-0.1-0.3-0.3-0.3c-0.2,0-0.3,0.1-0.3,0.3C40.5,16.1,40.7,16.2,40.8,16.2z"/>
<path d="M40.4,14.9c0.2,0,0.3-0.1,0.3-0.3c0-0.2-0.1-0.3-0.3-0.3c-0.2,0-0.3,0.1-0.3,0.3C40.1,14.8,40.2,14.9,40.4,14.9z"/>
<path d="M40,13.6c0.2,0,0.3-0.1,0.3-0.3c0-0.2-0.1-0.3-0.3-0.3c-0.2,0-0.3,0.1-0.3,0.3C39.6,13.4,39.8,13.6,40,13.6z"/>
<path d="M39.2,10.9c0.2,0,0.3-0.1,0.3-0.3c0-0.2-0.1-0.3-0.3-0.3c-0.2,0-0.3,0.1-0.3,0.3C38.9,10.8,39,10.9,39.2,10.9z"/>
<path d="M51.8,36.8c0.2,0,0.3-0.1,0.3-0.3c0-0.2-0.1-0.3-0.3-0.3c-0.2,0-0.3,0.1-0.3,0.3C51.5,36.7,51.6,36.8,51.8,36.8z"/>
<circle cx="50.9" cy="35.5" r="0.3"/>
<circle cx="49.9" cy="34.4" r="0.3"/>
<path d="M49.1,33.7c0.2,0,0.3-0.1,0.3-0.3c0-0.2-0.1-0.3-0.3-0.3c-0.2,0-0.3,0.1-0.3,0.3C48.7,33.5,48.9,33.7,49.1,33.7z"/>
<path d="M48.2,32.6c0.2,0,0.3-0.1,0.3-0.3c0-0.2-0.1-0.3-0.3-0.3c-0.2,0-0.3,0.1-0.3,0.3C47.9,32.5,48,32.6,48.2,32.6z"/>
<path d="M47.3,31.5c0.2,0,0.3-0.1,0.3-0.3c0-0.2-0.1-0.3-0.3-0.3c-0.2,0-0.3,0.1-0.3,0.3C47,31.4,47.2,31.5,47.3,31.5z"/>
<path d="M46.5,30.4c0.2,0,0.3-0.1,0.3-0.3c0-0.2-0.1-0.3-0.3-0.3c-0.2,0-0.3,0.1-0.3,0.3C46.2,30.2,46.4,30.4,46.5,30.4z"/>
<path d="M45.7,29.2c0.2,0,0.3-0.1,0.3-0.3c0-0.2-0.1-0.3-0.3-0.3c-0.2,0-0.3,0.1-0.3,0.3C45.4,29.1,45.6,29.2,45.7,29.2z"/>
<path d="M45,28.1c0.2,0,0.3-0.1,0.3-0.3c0-0.2-0.1-0.3-0.3-0.3c-0.2,0-0.3,0.1-0.3,0.3C44.7,27.9,44.8,28.1,45,28.1z"/>
<path d="M44.3,26.9c0.2,0,0.3-0.1,0.3-0.3c0-0.2-0.1-0.3-0.3-0.3c-0.2,0-0.3,0.1-0.3,0.3C43.9,26.7,44.1,26.9,44.3,26.9z"/>
<circle cx="43.6" cy="25.4" r="0.3"/>
<path d="M42.9,24.5c0.2,0,0.3-0.1,0.3-0.3c0-0.2-0.1-0.3-0.3-0.3c-0.2,0-0.3,0.1-0.3,0.3C42.5,24.3,42.7,24.5,42.9,24.5z"/>
<path d="M42.2,23.3c0.2,0,0.3-0.1,0.3-0.3c0-0.2-0.1-0.3-0.3-0.3c-0.2,0-0.3,0.1-0.3,0.3C41.9,23.1,42,23.3,42.2,23.3z"/>
<path d="M41.6,22c0.2,0,0.3-0.1,0.3-0.3c0-0.2-0.1-0.3-0.3-0.3c-0.2,0-0.3,0.1-0.3,0.3C41.3,21.9,41.4,22,41.6,22z"/>
<path d="M41,20.7c0.2,0,0.3-0.1,0.3-0.3c0-0.2-0.1-0.3-0.3-0.3c-0.2,0-0.3,0.1-0.3,0.3C40.7,20.6,40.8,20.7,41,20.7z"/>
<path d="M40.5,19.5c0.2,0,0.3-0.1,0.3-0.3c0-0.2-0.1-0.3-0.3-0.3c-0.2,0-0.3,0.1-0.3,0.3C40.1,19.3,40.3,19.5,40.5,19.5z"/>
<path d="M39.9,18.2c0.2,0,0.3-0.1,0.3-0.3c0-0.2-0.1-0.3-0.3-0.3c-0.2,0-0.3,0.1-0.3,0.3C39.6,18,39.8,18.2,39.9,18.2z"/>
<path d="M39.4,16.9c0.2,0,0.3-0.1,0.3-0.3c0-0.2-0.1-0.3-0.3-0.3c-0.2,0-0.3,0.1-0.3,0.3C39.1,16.7,39.3,16.9,39.4,16.9z"/>
<path d="M39,15.6c0.2,0,0.3-0.1,0.3-0.3c0-0.2-0.1-0.3-0.3-0.3c-0.2,0-0.3,0.1-0.3,0.3C38.6,15.4,38.8,15.6,39,15.6z"/>
<path d="M38.5,14.3c0.2,0,0.3-0.1,0.3-0.3c0-0.2-0.1-0.3-0.3-0.3c-0.2,0-0.3,0.1-0.3,0.3C38.2,14.1,38.4,14.3,38.5,14.3z"/>
<path d="M38.1,12.9c0.2,0,0.3-0.1,0.3-0.3c0-0.2-0.1-0.3-0.3-0.3c-0.2,0-0.3,0.1-0.3,0.3C37.8,12.8,38,12.9,38.1,12.9z"/>
<circle cx="37.8" cy="11.3" r="0.3"/>
<path d="M37.4,10.3c0.2,0,0.3-0.1,0.3-0.3c0-0.2-0.1-0.3-0.3-0.3c-0.2,0-0.3,0.1-0.3,0.3C37.1,10.1,37.2,10.3,37.4,10.3z"/>
<path d="M49.4,36.5c0.2,0,0.3-0.1,0.3-0.3c0-0.2-0.1-0.3-0.3-0.3c-0.2,0-0.3,0.1-0.3,0.3C49.1,36.4,49.2,36.5,49.4,36.5z"/>
<path d="M48.5,35.5c0.2,0,0.3-0.1,0.3-0.3c0-0.2-0.1-0.3-0.3-0.3c-0.2,0-0.3,0.1-0.3,0.3C48.2,35.3,48.3,35.5,48.5,35.5z"/>
<path d="M47.6,34.4c0.2,0,0.3-0.1,0.3-0.3c0-0.2-0.1-0.3-0.3-0.3c-0.2,0-0.3,0.1-0.3,0.3C47.3,34.2,47.4,34.4,47.6,34.4z"/>
<circle cx="46.8" cy="33" r="0.3"/>
<path d="M45.9,32.2c0.2,0,0.3-0.1,0.3-0.3c0-0.2-0.1-0.3-0.3-0.3c-0.2,0-0.3,0.1-0.3,0.3C45.6,32,45.8,32.2,45.9,32.2z"/>
<path d="M45.1,31.1c0.2,0,0.3-0.1,0.3-0.3c0-0.2-0.1-0.3-0.3-0.3c-0.2,0-0.3,0.1-0.3,0.3C44.8,30.9,44.9,31.1,45.1,31.1z"/>
<path d="M44.3,29.9c0.2,0,0.3-0.1,0.3-0.3c0-0.2-0.1-0.3-0.3-0.3c-0.2,0-0.3,0.1-0.3,0.3C44,29.8,44.2,29.9,44.3,29.9z"/>
<path d="M43.6,28.7c0.2,0,0.3-0.1,0.3-0.3c0-0.2-0.1-0.3-0.3-0.3c-0.2,0-0.3,0.1-0.3,0.3C43.3,28.6,43.4,28.7,43.6,28.7z"/>
<path d="M42.9,27.6c0.2,0,0.3-0.1,0.3-0.3c0-0.2-0.1-0.3-0.3-0.3c-0.2,0-0.3,0.1-0.3,0.3C42.5,27.4,42.7,27.6,42.9,27.6z"/>
<path d="M42.2,26.4c0.2,0,0.3-0.1,0.3-0.3c0-0.2-0.1-0.3-0.3-0.3c-0.2,0-0.3,0.1-0.3,0.3C41.8,26.2,42,26.4,42.2,26.4z"/>
<circle cx="41.5" cy="24.8" r="0.3"/>
<path d="M40.8,23.9c0.2,0,0.3-0.1,0.3-0.3c0-0.2-0.1-0.3-0.3-0.3c-0.2,0-0.3,0.1-0.3,0.3C40.5,23.8,40.7,23.9,40.8,23.9z"/>
<path d="M40.2,22.7c0.2,0,0.3-0.1,0.3-0.3c0-0.2-0.1-0.3-0.3-0.3c-0.2,0-0.3,0.1-0.3,0.3C39.9,22.5,40,22.7,40.2,22.7z"/>
<path d="M39.6,21.4c0.2,0,0.3-0.1,0.3-0.3c0-0.2-0.1-0.3-0.3-0.3c-0.2,0-0.3,0.1-0.3,0.3C39.3,21.3,39.5,21.4,39.6,21.4z"/>
<path d="M39.1,20.1c0.2,0,0.3-0.1,0.3-0.3c0-0.2-0.1-0.3-0.3-0.3c-0.2,0-0.3,0.1-0.3,0.3C38.7,20,38.9,20.1,39.1,20.1z"/>
<path d="M38.5,18.9c0.2,0,0.3-0.1,0.3-0.3c0-0.2-0.1-0.3-0.3-0.3c-0.2,0-0.3,0.1-0.3,0.3C38.2,18.7,38.4,18.9,38.5,18.9z"/>
<path d="M38,17.6c0.2,0,0.3-0.1,0.3-0.3c0-0.2-0.1-0.3-0.3-0.3c-0.2,0-0.3,0.1-0.3,0.3C37.7,17.4,37.9,17.6,38,17.6z"/>
<path d="M37.6,16.3c0.2,0,0.3-0.1,0.3-0.3c0-0.2-0.1-0.3-0.3-0.3c-0.2,0-0.3,0.1-0.3,0.3C37.2,16.1,37.4,16.3,37.6,16.3z"/>
<path d="M37.1,14.9c0.2,0,0.3-0.1,0.3-0.3c0-0.2-0.1-0.3-0.3-0.3c-0.2,0-0.3,0.1-0.3,0.3C36.8,14.8,37,14.9,37.1,14.9z"/>
<path d="M36.7,13.6c0.2,0,0.3-0.1,0.3-0.3c0-0.2-0.1-0.3-0.3-0.3c-0.2,0-0.3,0.1-0.3,0.3C36.4,13.5,36.5,13.6,36.7,13.6z"/>
<path d="M36.3,12.3c0.2,0,0.3-0.1,0.3-0.3s-0.1-0.3-0.3-0.3c-0.2,0-0.3,0.1-0.3,0.3S36.2,12.3,36.3,12.3z"/>
<path d="M36,10.9c0.2,0,0.3-0.1,0.3-0.3c0-0.2-0.1-0.3-0.3-0.3c-0.2,0-0.3,0.1-0.3,0.3C35.7,10.8,35.8,10.9,36,10.9z"/>
<path d="M35.7,9.6c0.2,0,0.3-0.1,0.3-0.3c0-0.2-0.1-0.3-0.3-0.3c-0.2,0-0.3,0.1-0.3,0.3C35.4,9.4,35.5,9.6,35.7,9.6z"/>
<path d="M35.4,8.2c0.2,0,0.3-0.1,0.3-0.3c0-0.2-0.1-0.3-0.3-0.3c-0.2,0-0.3,0.1-0.3,0.3C35.1,8.1,35.2,8.2,35.4,8.2z"/>
<path d="M48.9,38.3c0.2,0,0.3-0.1,0.3-0.3c0-0.2-0.1-0.3-0.3-0.3c-0.2,0-0.3,0.1-0.3,0.3C48.6,38.1,48.7,38.3,48.9,38.3z"/>
<path d="M48,37.2c0.2,0,0.3-0.1,0.3-0.3c0-0.2-0.1-0.3-0.3-0.3c-0.2,0-0.3,0.1-0.3,0.3C47.6,37.1,47.8,37.2,48,37.2z"/>
<path d="M47.1,36.2c0.2,0,0.3-0.1,0.3-0.3c0-0.2-0.1-0.3-0.3-0.3c-0.2,0-0.3,0.1-0.3,0.3C46.7,36,46.9,36.2,47.1,36.2z"/>
<path d="M46.2,35.1c0.2,0,0.3-0.1,0.3-0.3c0-0.2-0.1-0.3-0.3-0.3c-0.2,0-0.3,0.1-0.3,0.3C45.9,34.9,46,35.1,46.2,35.1z"/>
<path d="M45.3,34c0.2,0,0.3-0.1,0.3-0.3c0-0.2-0.1-0.3-0.3-0.3c-0.2,0-0.3,0.1-0.3,0.3C45,33.8,45.2,34,45.3,34z"/>
<path d="M44.5,32.9c0.2,0,0.3-0.1,0.3-0.3c0-0.2-0.1-0.3-0.3-0.3c-0.2,0-0.3,0.1-0.3,0.3C44.2,32.7,44.3,32.9,44.5,32.9z"/>
<path d="M43.7,31.7c0.2,0,0.3-0.1,0.3-0.3c0-0.2-0.1-0.3-0.3-0.3c-0.2,0-0.3,0.1-0.3,0.3C43.4,31.6,43.5,31.7,43.7,31.7z"/>
<path d="M42.9,30.6c0.2,0,0.3-0.1,0.3-0.3c0-0.2-0.1-0.3-0.3-0.3c-0.2,0-0.3,0.1-0.3,0.3C42.6,30.4,42.8,30.6,42.9,30.6z"/>
<path d="M42.2,29.4c0.2,0,0.3-0.1,0.3-0.3c0-0.2-0.1-0.3-0.3-0.3c-0.2,0-0.3,0.1-0.3,0.3C41.9,29.3,42,29.4,42.2,29.4z"/>
<path d="M41.5,28.2c0.2,0,0.3-0.1,0.3-0.3c0-0.2-0.1-0.3-0.3-0.3c-0.2,0-0.3,0.1-0.3,0.3C41.1,28.1,41.3,28.2,41.5,28.2z"/>
<path d="M40.8,27c0.2,0,0.3-0.1,0.3-0.3c0-0.2-0.1-0.3-0.3-0.3c-0.2,0-0.3,0.1-0.3,0.3C40.4,26.9,40.6,27,40.8,27z"/>
<path d="M40.1,25.8c0.2,0,0.3-0.1,0.3-0.3c0-0.2-0.1-0.3-0.3-0.3c-0.2,0-0.3,0.1-0.3,0.3C39.8,25.7,39.9,25.8,40.1,25.8z"/>
<path d="M39.4,24.6c0.2,0,0.3-0.1,0.3-0.3s-0.1-0.3-0.3-0.3c-0.2,0-0.3,0.1-0.3,0.3S39.3,24.6,39.4,24.6z"/>
<path d="M38.8,23.4c0.2,0,0.3-0.1,0.3-0.3s-0.1-0.3-0.3-0.3c-0.2,0-0.3,0.1-0.3,0.3S38.6,23.4,38.8,23.4z"/>
<path d="M38.2,22.1c0.2,0,0.3-0.1,0.3-0.3c0-0.2-0.1-0.3-0.3-0.3c-0.2,0-0.3,0.1-0.3,0.3C37.9,21.9,38.1,22.1,38.2,22.1z"/>
<path d="M37.7,20.8c0.2,0,0.3-0.1,0.3-0.3c0-0.2-0.1-0.3-0.3-0.3c-0.2,0-0.3,0.1-0.3,0.3C37.3,20.7,37.5,20.8,37.7,20.8z"/>
<path d="M37.1,19.5c0.2,0,0.3-0.1,0.3-0.3c0-0.2-0.1-0.3-0.3-0.3c-0.2,0-0.3,0.1-0.3,0.3C36.8,19.4,37,19.5,37.1,19.5z"/>
<path d="M36.6,18.2c0.2,0,0.3-0.1,0.3-0.3c0-0.2-0.1-0.3-0.3-0.3c-0.2,0-0.3,0.1-0.3,0.3C36.3,18.1,36.5,18.2,36.6,18.2z"/>
<circle cx="36.2" cy="16.6" r="0.3"/>
<path d="M35.7,15.6c0.2,0,0.3-0.1,0.3-0.3c0-0.2-0.1-0.3-0.3-0.3c-0.2,0-0.3,0.1-0.3,0.3C35.4,15.5,35.5,15.6,35.7,15.6z"/>
<path d="M35.3,14.3c0.2,0,0.3-0.1,0.3-0.3c0-0.2-0.1-0.3-0.3-0.3c-0.2,0-0.3,0.1-0.3,0.3C35,14.1,35.1,14.3,35.3,14.3z"/>
<path d="M34.9,13c0.2,0,0.3-0.1,0.3-0.3c0-0.2-0.1-0.3-0.3-0.3c-0.2,0-0.3,0.1-0.3,0.3C34.6,12.8,34.7,13,34.9,13z"/>
<path d="M34.6,11.6c0.2,0,0.3-0.1,0.3-0.3c0-0.2-0.1-0.3-0.3-0.3c-0.2,0-0.3,0.1-0.3,0.3C34.2,11.5,34.4,11.6,34.6,11.6z"/>
<path d="M34.2,10.3c0.2,0,0.3-0.1,0.3-0.3c0-0.2-0.1-0.3-0.3-0.3c-0.2,0-0.3,0.1-0.3,0.3C33.9,10.1,34.1,10.3,34.2,10.3z"/>
<circle cx="34" cy="8.6" r="0.3"/>
<path d="M32.9,2c0.2,0,0.3-0.1,0.3-0.3s-0.1-0.3-0.3-0.3c-0.2,0-0.3,0.1-0.3,0.3S32.8,2,32.9,2z"/>
<path d="M46.5,37.9c0.2,0,0.3-0.1,0.3-0.3c0-0.2-0.1-0.3-0.3-0.3c-0.2,0-0.3,0.1-0.3,0.3C46.2,37.8,46.4,37.9,46.5,37.9z"/>
<path d="M45.6,36.9c0.2,0,0.3-0.1,0.3-0.3c0-0.2-0.1-0.3-0.3-0.3c-0.2,0-0.3,0.1-0.3,0.3C45.3,36.7,45.5,36.9,45.6,36.9z"/>
<path d="M44.8,35.8c0.2,0,0.3-0.1,0.3-0.3c0-0.2-0.1-0.3-0.3-0.3c-0.2,0-0.3,0.1-0.3,0.3C44.4,35.6,44.6,35.8,44.8,35.8z"/>
<circle cx="43.9" cy="34.3" r="0.3"/>
<path d="M43.1,33.6c0.2,0,0.3-0.1,0.3-0.3c0-0.2-0.1-0.3-0.3-0.3c-0.2,0-0.3,0.1-0.3,0.3C42.8,33.4,42.9,33.6,43.1,33.6z"/>
<path d="M42.3,32.4c0.2,0,0.3-0.1,0.3-0.3c0-0.2-0.1-0.3-0.3-0.3c-0.2,0-0.3,0.1-0.3,0.3C42,32.3,42.1,32.4,42.3,32.4z"/>
<path d="M41.5,31.3c0.2,0,0.3-0.1,0.3-0.3c0-0.2-0.1-0.3-0.3-0.3c-0.2,0-0.3,0.1-0.3,0.3C41.2,31.1,41.3,31.3,41.5,31.3z"/>
<path d="M40.8,30.1c0.2,0,0.3-0.1,0.3-0.3c0-0.2-0.1-0.3-0.3-0.3c-0.2,0-0.3,0.1-0.3,0.3C40.5,30,40.6,30.1,40.8,30.1z"/>
<path d="M40.1,28.9c0.2,0,0.3-0.1,0.3-0.3c0-0.2-0.1-0.3-0.3-0.3s-0.3,0.1-0.3,0.3C39.7,28.8,39.9,28.9,40.1,28.9z"/>
<circle cx="39.4" cy="27.4" r="0.3"/>
<circle cx="38.7" cy="26.2" r="0.3"/>
<path d="M38,25.3c0.2,0,0.3-0.1,0.3-0.3c0-0.2-0.1-0.3-0.3-0.3c-0.2,0-0.3,0.1-0.3,0.3C37.7,25.1,37.9,25.3,38,25.3z"/>
<path d="M37.4,24c0.2,0,0.3-0.1,0.3-0.3c0-0.2-0.1-0.3-0.3-0.3c-0.2,0-0.3,0.1-0.3,0.3C37.1,23.9,37.3,24,37.4,24z"/>
<path d="M36.8,22.8c0.2,0,0.3-0.1,0.3-0.3c0-0.2-0.1-0.3-0.3-0.3s-0.3,0.1-0.3,0.3C36.5,22.6,36.7,22.8,36.8,22.8z"/>
<path d="M36.3,21.5c0.2,0,0.3-0.1,0.3-0.3c0-0.2-0.1-0.3-0.3-0.3c-0.2,0-0.3,0.1-0.3,0.3C36,21.3,36.1,21.5,36.3,21.5z"/>
<path d="M35.7,20.2c0.2,0,0.3-0.1,0.3-0.3c0-0.2-0.1-0.3-0.3-0.3c-0.2,0-0.3,0.1-0.3,0.3C35.4,20.1,35.6,20.2,35.7,20.2z"/>
<path d="M35.2,18.9c0.2,0,0.3-0.1,0.3-0.3c0-0.2-0.1-0.3-0.3-0.3c-0.2,0-0.3,0.1-0.3,0.3C34.9,18.8,35.1,18.9,35.2,18.9z"/>
<path d="M34.8,17.6c0.2,0,0.3-0.1,0.3-0.3c0-0.2-0.1-0.3-0.3-0.3c-0.2,0-0.3,0.1-0.3,0.3C34.4,17.5,34.6,17.6,34.8,17.6z"/>
<path d="M34.3,16.3c0.2,0,0.3-0.1,0.3-0.3c0-0.2-0.1-0.3-0.3-0.3c-0.2,0-0.3,0.1-0.3,0.3C34,16.2,34.1,16.3,34.3,16.3z"/>
<path d="M33.9,15c0.2,0,0.3-0.1,0.3-0.3c0-0.2-0.1-0.3-0.3-0.3c-0.2,0-0.3,0.1-0.3,0.3C33.6,14.8,33.7,15,33.9,15z"/>
<path d="M33.5,13.6c0.2,0,0.3-0.1,0.3-0.3c0-0.2-0.1-0.3-0.3-0.3c-0.2,0-0.3,0.1-0.3,0.3C33.2,13.5,33.3,13.6,33.5,13.6z"/>
<path d="M33.2,12.3c0.2,0,0.3-0.1,0.3-0.3c0-0.2-0.1-0.3-0.3-0.3c-0.2,0-0.3,0.1-0.3,0.3C32.8,12.2,33,12.3,33.2,12.3z"/>
<path d="M32.8,11c0.2,0,0.3-0.1,0.3-0.3c0-0.2-0.1-0.3-0.3-0.3c-0.2,0-0.3,0.1-0.3,0.3C32.5,10.8,32.6,11,32.8,11z"/>
<path d="M32.5,9.6c0.2,0,0.3-0.1,0.3-0.3c0-0.2-0.1-0.3-0.3-0.3c-0.2,0-0.3,0.1-0.3,0.3C32.2,9.4,32.3,9.6,32.5,9.6z"/>
<path d="M32.2,8.2c0.2,0,0.3-0.1,0.3-0.3c0-0.2-0.1-0.3-0.3-0.3c-0.2,0-0.3,0.1-0.3,0.3C31.9,8.1,32.1,8.2,32.2,8.2z"/>
<path d="M31.5,2.7c0.2,0,0.3-0.1,0.3-0.3c0-0.2-0.1-0.3-0.3-0.3c-0.2,0-0.3,0.1-0.3,0.3C31.1,2.6,31.3,2.7,31.5,2.7z"/>
<path d="M47,40.7c0.2,0,0.3-0.1,0.3-0.3c0-0.2-0.1-0.3-0.3-0.3c-0.2,0-0.3,0.1-0.3,0.3C46.6,40.5,46.8,40.7,47,40.7z"/>
<path d="M46,39.7c0.2,0,0.3-0.1,0.3-0.3c0-0.2-0.1-0.3-0.3-0.3c-0.2,0-0.3,0.1-0.3,0.3C45.7,39.5,45.8,39.7,46,39.7z"/>
<path d="M45.1,38.6c0.2,0,0.3-0.1,0.3-0.3c0-0.2-0.1-0.3-0.3-0.3c-0.2,0-0.3,0.1-0.3,0.3C44.8,38.5,44.9,38.6,45.1,38.6z"/>
<path d="M44.2,37.6c0.2,0,0.3-0.1,0.3-0.3c0-0.2-0.1-0.3-0.3-0.3c-0.2,0-0.3,0.1-0.3,0.3C43.9,37.4,44,37.6,44.2,37.6z"/>
<path d="M43.4,36.5c0.2,0,0.3-0.1,0.3-0.3s-0.1-0.3-0.3-0.3c-0.2,0-0.3,0.1-0.3,0.3S43.2,36.5,43.4,36.5z"/>
<path d="M42.5,35.4c0.2,0,0.3-0.1,0.3-0.3c0-0.2-0.1-0.3-0.3-0.3c-0.2,0-0.3,0.1-0.3,0.3C42.2,35.2,42.3,35.4,42.5,35.4z"/>
<path d="M41.7,34.2c0.2,0,0.3-0.1,0.3-0.3c0-0.2-0.1-0.3-0.3-0.3c-0.2,0-0.3,0.1-0.3,0.3C41.4,34.1,41.5,34.2,41.7,34.2z"/>
<circle cx="40.9" cy="32.8" r="0.3"/>
<path d="M40.1,31.9c0.2,0,0.3-0.1,0.3-0.3c0-0.2-0.1-0.3-0.3-0.3c-0.2,0-0.3,0.1-0.3,0.3C39.8,31.8,39.9,31.9,40.1,31.9z"/>
<path d="M39.4,30.8c0.2,0,0.3-0.1,0.3-0.3s-0.1-0.3-0.3-0.3c-0.2,0-0.3,0.1-0.3,0.3S39.2,30.8,39.4,30.8z"/>
<circle cx="38.7" cy="29.3" r="0.3"/>
<path d="M38,28.4c0.2,0,0.3-0.1,0.3-0.3c0-0.2-0.1-0.3-0.3-0.3c-0.2,0-0.3,0.1-0.3,0.3C37.6,28.2,37.8,28.4,38,28.4z"/>
<path d="M37.3,27.2c0.2,0,0.3-0.1,0.3-0.3c0-0.2-0.1-0.3-0.3-0.3c-0.2,0-0.3,0.1-0.3,0.3C37,27,37.1,27.2,37.3,27.2z"/>
<path d="M36.7,25.9c0.2,0,0.3-0.1,0.3-0.3c0-0.2-0.1-0.3-0.3-0.3c-0.2,0-0.3,0.1-0.3,0.3C36.3,25.8,36.5,25.9,36.7,25.9z"/>
<path d="M36,24.7c0.2,0,0.3-0.1,0.3-0.3c0-0.2-0.1-0.3-0.3-0.3c-0.2,0-0.3,0.1-0.3,0.3C35.7,24.5,35.9,24.7,36,24.7z"/>
<path d="M35.4,23.4c0.2,0,0.3-0.1,0.3-0.3c0-0.2-0.1-0.3-0.3-0.3c-0.2,0-0.3,0.1-0.3,0.3C35.1,23.3,35.3,23.4,35.4,23.4z"/>
<circle cx="34.9" cy="21.8" r="0.3"/>
<path d="M34.4,20.9c0.2,0,0.3-0.1,0.3-0.3c0-0.2-0.1-0.3-0.3-0.3c-0.2,0-0.3,0.1-0.3,0.3C34,20.7,34.2,20.9,34.4,20.9z"/>
<path d="M33.8,19.6c0.2,0,0.3-0.1,0.3-0.3c0-0.2-0.1-0.3-0.3-0.3c-0.2,0-0.3,0.1-0.3,0.3C33.5,19.4,33.7,19.6,33.8,19.6z"/>
<path d="M33.4,18.3c0.2,0,0.3-0.1,0.3-0.3c0-0.2-0.1-0.3-0.3-0.3c-0.2,0-0.3,0.1-0.3,0.3C33,18.1,33.2,18.3,33.4,18.3z"/>
<path d="M32.9,17c0.2,0,0.3-0.1,0.3-0.3c0-0.2-0.1-0.3-0.3-0.3c-0.2,0-0.3,0.1-0.3,0.3C32.6,16.8,32.7,17,32.9,17z"/>
<path d="M32.5,15.7c0.2,0,0.3-0.1,0.3-0.3c0-0.2-0.1-0.3-0.3-0.3c-0.2,0-0.3,0.1-0.3,0.3C32.2,15.5,32.3,15.7,32.5,15.7z"/>
<path d="M32.1,14.3c0.2,0,0.3-0.1,0.3-0.3c0-0.2-0.1-0.3-0.3-0.3c-0.2,0-0.3,0.1-0.3,0.3C31.8,14.2,31.9,14.3,32.1,14.3z"/>
<path d="M31.7,13c0.2,0,0.3-0.1,0.3-0.3c0-0.2-0.1-0.3-0.3-0.3c-0.2,0-0.3,0.1-0.3,0.3C31.4,12.8,31.5,13,31.7,13z"/>
<path d="M31.4,11.6c0.2,0,0.3-0.1,0.3-0.3c0-0.2-0.1-0.3-0.3-0.3c-0.2,0-0.3,0.1-0.3,0.3C31.1,11.5,31.2,11.6,31.4,11.6z"/>
<path d="M31.1,10.3c0.2,0,0.3-0.1,0.3-0.3c0-0.2-0.1-0.3-0.3-0.3c-0.2,0-0.3,0.1-0.3,0.3C30.8,10.1,30.9,10.3,31.1,10.3z"/>
<path d="M30.8,8.9c0.2,0,0.3-0.1,0.3-0.3c0-0.2-0.1-0.3-0.3-0.3c-0.2,0-0.3,0.1-0.3,0.3C30.5,8.8,30.6,8.9,30.8,8.9z"/>
<path d="M29.8,2c0.2,0,0.3-0.1,0.3-0.3c0-0.2-0.1-0.3-0.3-0.3c-0.2,0-0.3,0.1-0.3,0.3C29.5,1.9,29.7,2,29.8,2z"/>
<path d="M46.5,42.4c0.2,0,0.3-0.1,0.3-0.3c0-0.2-0.1-0.3-0.3-0.3c-0.2,0-0.3,0.1-0.3,0.3C46.1,42.3,46.3,42.4,46.5,42.4z"/>
<path d="M45.5,41.4c0.2,0,0.3-0.1,0.3-0.3c0-0.2-0.1-0.3-0.3-0.3c-0.2,0-0.3,0.1-0.3,0.3C45.2,41.3,45.3,41.4,45.5,41.4z"/>
<path d="M44.6,40.4c0.2,0,0.3-0.1,0.3-0.3c0-0.2-0.1-0.3-0.3-0.3c-0.2,0-0.3,0.1-0.3,0.3C44.2,40.2,44.4,40.4,44.6,40.4z"/>
<path d="M43.7,39.3c0.2,0,0.3-0.1,0.3-0.3c0-0.2-0.1-0.3-0.3-0.3c-0.2,0-0.3,0.1-0.3,0.3C43.3,39.2,43.5,39.3,43.7,39.3z"/>
<circle cx="42.8" cy="37.9" r="0.3"/>
<circle cx="41.9" cy="36.8" r="0.3"/>
<path d="M41.1,36.1c0.2,0,0.3-0.1,0.3-0.3c0-0.2-0.1-0.3-0.3-0.3c-0.2,0-0.3,0.1-0.3,0.3C40.8,35.9,40.9,36.1,41.1,36.1z"/>
<path d="M40.3,34.9c0.2,0,0.3-0.1,0.3-0.3c0-0.2-0.1-0.3-0.3-0.3c-0.2,0-0.3,0.1-0.3,0.3C39.9,34.8,40.1,34.9,40.3,34.9z"/>
<path d="M39.5,33.8c0.2,0,0.3-0.1,0.3-0.3c0-0.2-0.1-0.3-0.3-0.3c-0.2,0-0.3,0.1-0.3,0.3C39.2,33.6,39.3,33.8,39.5,33.8z"/>
<path d="M38.7,32.6c0.2,0,0.3-0.1,0.3-0.3c0-0.2-0.1-0.3-0.3-0.3c-0.2,0-0.3,0.1-0.3,0.3C38.4,32.5,38.5,32.6,38.7,32.6z"/>
<path d="M38,31.5c0.2,0,0.3-0.1,0.3-0.3s-0.1-0.3-0.3-0.3c-0.2,0-0.3,0.1-0.3,0.3S37.8,31.5,38,31.5z"/>
<path d="M37.3,30.3c0.2,0,0.3-0.1,0.3-0.3c0-0.2-0.1-0.3-0.3-0.3c-0.2,0-0.3,0.1-0.3,0.3C36.9,30.1,37.1,30.3,37.3,30.3z"/>
<path d="M36.6,29.1c0.2,0,0.3-0.1,0.3-0.3c0-0.2-0.1-0.3-0.3-0.3c-0.2,0-0.3,0.1-0.3,0.3C36.2,28.9,36.4,29.1,36.6,29.1z"/>
<path d="M35.9,27.8c0.2,0,0.3-0.1,0.3-0.3c0-0.2-0.1-0.3-0.3-0.3c-0.2,0-0.3,0.1-0.3,0.3C35.6,27.7,35.7,27.8,35.9,27.8z"/>
<path d="M35.3,26.6c0.2,0,0.3-0.1,0.3-0.3c0-0.2-0.1-0.3-0.3-0.3c-0.2,0-0.3,0.1-0.3,0.3C34.9,26.5,35.1,26.6,35.3,26.6z"/>
<path d="M34.6,25.4c0.2,0,0.3-0.1,0.3-0.3c0-0.2-0.1-0.3-0.3-0.3c-0.2,0-0.3,0.1-0.3,0.3C34.3,25.2,34.5,25.4,34.6,25.4z"/>
<circle cx="34.1" cy="23.8" r="0.3"/>
<circle cx="33.5" cy="22.5" r="0.3"/>
<path d="M33,21.6c0.2,0,0.3-0.1,0.3-0.3c0-0.2-0.1-0.3-0.3-0.3c-0.2,0-0.3,0.1-0.3,0.3C32.6,21.4,32.8,21.6,33,21.6z"/>
<path d="M32.4,20.3c0.2,0,0.3-0.1,0.3-0.3c0-0.2-0.1-0.3-0.3-0.3s-0.3,0.1-0.3,0.3C32.1,20.1,32.3,20.3,32.4,20.3z"/>
<path d="M32,19c0.2,0,0.3-0.1,0.3-0.3c0-0.2-0.1-0.3-0.3-0.3c-0.2,0-0.3,0.1-0.3,0.3C31.6,18.8,31.8,19,32,19z"/>
<path d="M31.5,17.6c0.2,0,0.3-0.1,0.3-0.3c0-0.2-0.1-0.3-0.3-0.3c-0.2,0-0.3,0.1-0.3,0.3C31.2,17.5,31.3,17.6,31.5,17.6z"/>
<path d="M31.1,16.3c0.2,0,0.3-0.1,0.3-0.3c0-0.2-0.1-0.3-0.3-0.3c-0.2,0-0.3,0.1-0.3,0.3C30.7,16.2,30.9,16.3,31.1,16.3z"/>
<path d="M30.7,15c0.2,0,0.3-0.1,0.3-0.3c0-0.2-0.1-0.3-0.3-0.3c-0.2,0-0.3,0.1-0.3,0.3C30.3,14.9,30.5,15,30.7,15z"/>
<path d="M30.3,13.7c0.2,0,0.3-0.1,0.3-0.3c0-0.2-0.1-0.3-0.3-0.3c-0.2,0-0.3,0.1-0.3,0.3C30,13.5,30.1,13.7,30.3,13.7z"/>
<path d="M30,12.3c0.2,0,0.3-0.1,0.3-0.3c0-0.2-0.1-0.3-0.3-0.3c-0.2,0-0.3,0.1-0.3,0.3C29.6,12.2,29.8,12.3,30,12.3z"/>
<path d="M29.6,11c0.2,0,0.3-0.1,0.3-0.3c0-0.2-0.1-0.3-0.3-0.3c-0.2,0-0.3,0.1-0.3,0.3C29.3,10.8,29.5,11,29.6,11z"/>
<circle cx="29.4" cy="9.3" r="0.3"/>
<path d="M29.1,8.2c0.2,0,0.3-0.1,0.3-0.3c0-0.2-0.1-0.3-0.3-0.3c-0.2,0-0.3,0.1-0.3,0.3C28.8,8.1,28.9,8.2,29.1,8.2z"/>
<path d="M28.9,6.9c0.2,0,0.3-0.1,0.3-0.3c0-0.2-0.1-0.3-0.3-0.3c-0.2,0-0.3,0.1-0.3,0.3C28.5,6.7,28.7,6.9,28.9,6.9z"/>
<path d="M28.3,2.7c0.2,0,0.3-0.1,0.3-0.3c0-0.2-0.1-0.3-0.3-0.3c-0.2,0-0.3,0.1-0.3,0.3C28,2.6,28.2,2.7,28.3,2.7z"/>
<path d="M28.2,1.4c0.2,0,0.3-0.1,0.3-0.3c0-0.2-0.1-0.3-0.3-0.3c-0.2,0-0.3,0.1-0.3,0.3C27.9,1.2,28.1,1.4,28.2,1.4z"/>
<path d="M45,43.1c0.2,0,0.3-0.1,0.3-0.3c0-0.2-0.1-0.3-0.3-0.3c-0.2,0-0.3,0.1-0.3,0.3C44.7,43,44.8,43.1,45,43.1z"/>
<path d="M44.1,42.1c0.2,0,0.3-0.1,0.3-0.3c0-0.2-0.1-0.3-0.3-0.3c-0.2,0-0.3,0.1-0.3,0.3C43.7,42,43.9,42.1,44.1,42.1z"/>
<path d="M43.1,41.1c0.2,0,0.3-0.1,0.3-0.3c0-0.2-0.1-0.3-0.3-0.3c-0.2,0-0.3,0.1-0.3,0.3C42.8,40.9,43,41.1,43.1,41.1z"/>
<path d="M42.2,40c0.2,0,0.3-0.1,0.3-0.3c0-0.2-0.1-0.3-0.3-0.3c-0.2,0-0.3,0.1-0.3,0.3C41.9,39.9,42.1,40,42.2,40z"/>
<path d="M41.4,38.9c0.2,0,0.3-0.1,0.3-0.3c0-0.2-0.1-0.3-0.3-0.3c-0.2,0-0.3,0.1-0.3,0.3C41,38.8,41.2,38.9,41.4,38.9z"/>
<path d="M40.5,37.8c0.2,0,0.3-0.1,0.3-0.3c0-0.2-0.1-0.3-0.3-0.3c-0.2,0-0.3,0.1-0.3,0.3C40.2,37.7,40.3,37.8,40.5,37.8z"/>
<path d="M39.7,36.7c0.2,0,0.3-0.1,0.3-0.3c0-0.2-0.1-0.3-0.3-0.3c-0.2,0-0.3,0.1-0.3,0.3C39.3,36.6,39.5,36.7,39.7,36.7z"/>
<path d="M38.9,35.6c0.2,0,0.3-0.1,0.3-0.3c0-0.2-0.1-0.3-0.3-0.3c-0.2,0-0.3,0.1-0.3,0.3C38.5,35.5,38.7,35.6,38.9,35.6z"/>
<path d="M38.1,34.5c0.2,0,0.3-0.1,0.3-0.3c0-0.2-0.1-0.3-0.3-0.3c-0.2,0-0.3,0.1-0.3,0.3C37.7,34.3,37.9,34.5,38.1,34.5z"/>
<path d="M37.3,33.3c0.2,0,0.3-0.1,0.3-0.3c0-0.2-0.1-0.3-0.3-0.3c-0.2,0-0.3,0.1-0.3,0.3C37,33.2,37.1,33.3,37.3,33.3z"/>
<path d="M36.6,32.1c0.2,0,0.3-0.1,0.3-0.3c0-0.2-0.1-0.3-0.3-0.3c-0.2,0-0.3,0.1-0.3,0.3C36.2,32,36.4,32.1,36.6,32.1z"/>
<path d="M35.9,30.9c0.2,0,0.3-0.1,0.3-0.3c0-0.2-0.1-0.3-0.3-0.3c-0.2,0-0.3,0.1-0.3,0.3C35.5,30.8,35.7,30.9,35.9,30.9z"/>
<path d="M35.2,29.7c0.2,0,0.3-0.1,0.3-0.3c0-0.2-0.1-0.3-0.3-0.3c-0.2,0-0.3,0.1-0.3,0.3C34.8,29.6,35,29.7,35.2,29.7z"/>
<path d="M34.5,28.5c0.2,0,0.3-0.1,0.3-0.3c0-0.2-0.1-0.3-0.3-0.3c-0.2,0-0.3,0.1-0.3,0.3C34.2,28.4,34.3,28.5,34.5,28.5z"/>
<path d="M33.9,27.3c0.2,0,0.3-0.1,0.3-0.3c0-0.2-0.1-0.3-0.3-0.3c-0.2,0-0.3,0.1-0.3,0.3C33.5,27.1,33.7,27.3,33.9,27.3z"/>
<path d="M33.3,26c0.2,0,0.3-0.1,0.3-0.3c0-0.2-0.1-0.3-0.3-0.3c-0.2,0-0.3,0.1-0.3,0.3C32.9,25.9,33.1,26,33.3,26z"/>
<path d="M32.7,24.8c0.2,0,0.3-0.1,0.3-0.3c0-0.2-0.1-0.3-0.3-0.3c-0.2,0-0.3,0.1-0.3,0.3C32.3,24.6,32.5,24.8,32.7,24.8z"/>
<path d="M32.1,23.5c0.2,0,0.3-0.1,0.3-0.3c0-0.2-0.1-0.3-0.3-0.3c-0.2,0-0.3,0.1-0.3,0.3C31.8,23.4,31.9,23.5,32.1,23.5z"/>
<path d="M31.6,22.2c0.2,0,0.3-0.1,0.3-0.3c0-0.2-0.1-0.3-0.3-0.3c-0.2,0-0.3,0.1-0.3,0.3C31.2,22.1,31.4,22.2,31.6,22.2z"/>
<path d="M31,20.9c0.2,0,0.3-0.1,0.3-0.3c0-0.2-0.1-0.3-0.3-0.3c-0.2,0-0.3,0.1-0.3,0.3C30.7,20.8,30.9,20.9,31,20.9z"/>
<path d="M30.6,19.6c0.2,0,0.3-0.1,0.3-0.3c0-0.2-0.1-0.3-0.3-0.3c-0.2,0-0.3,0.1-0.3,0.3C30.2,19.5,30.4,19.6,30.6,19.6z"/>
<circle cx="30.1" cy="18" r="0.3"/>
<path d="M29.7,17c0.2,0,0.3-0.1,0.3-0.3c0-0.2-0.1-0.3-0.3-0.3c-0.2,0-0.3,0.1-0.3,0.3C29.3,16.9,29.5,17,29.7,17z"/>
<circle cx="29.3" cy="15.3" r="0.3"/>
<path d="M28.9,14.3c0.2,0,0.3-0.1,0.3-0.3c0-0.2-0.1-0.3-0.3-0.3c-0.2,0-0.3,0.1-0.3,0.3C28.6,14.2,28.7,14.3,28.9,14.3z"/>
<path d="M28.5,13c0.2,0,0.3-0.1,0.3-0.3c0-0.2-0.1-0.3-0.3-0.3c-0.2,0-0.3,0.1-0.3,0.3C28.2,12.8,28.4,13,28.5,13z"/>
<path d="M28.2,11.6c0.2,0,0.3-0.1,0.3-0.3c0-0.2-0.1-0.3-0.3-0.3c-0.2,0-0.3,0.1-0.3,0.3C27.9,11.5,28,11.6,28.2,11.6z"/>
<path d="M27.9,10.3c0.2,0,0.3-0.1,0.3-0.3c0-0.2-0.1-0.3-0.3-0.3c-0.2,0-0.3,0.1-0.3,0.3C27.6,10.1,27.7,10.3,27.9,10.3z"/>
<path d="M27.7,8.9c0.2,0,0.3-0.1,0.3-0.3s-0.1-0.3-0.3-0.3c-0.2,0-0.3,0.1-0.3,0.3S27.5,8.9,27.7,8.9z"/>
<path d="M27.4,7.6c0.2,0,0.3-0.1,0.3-0.3c0-0.2-0.1-0.3-0.3-0.3c-0.2,0-0.3,0.1-0.3,0.3C27.1,7.4,27.2,7.6,27.4,7.6z"/>
<path d="M27.2,6.2c0.2,0,0.3-0.1,0.3-0.3c0-0.2-0.1-0.3-0.3-0.3c-0.2,0-0.3,0.1-0.3,0.3C26.9,6,27,6.2,27.2,6.2z"/>
<path d="M26.7,2c0.2,0,0.3-0.1,0.3-0.3c0-0.2-0.1-0.3-0.3-0.3c-0.2,0-0.3,0.1-0.3,0.3C26.4,1.9,26.6,2,26.7,2z"/>
<path d="M26.6,0.7c0.2,0,0.3-0.1,0.3-0.3C27,0.1,26.8,0,26.6,0c-0.2,0-0.3,0.1-0.3,0.3C26.3,0.5,26.5,0.7,26.6,0.7z"/>
<path d="M43.5,43.9c0.2,0,0.3-0.1,0.3-0.3c0-0.2-0.1-0.3-0.3-0.3c-0.2,0-0.3,0.1-0.3,0.3C43.2,43.7,43.4,43.9,43.5,43.9z"/>
<path d="M42.6,42.8c0.2,0,0.3-0.1,0.3-0.3c0-0.2-0.1-0.3-0.3-0.3c-0.2,0-0.3,0.1-0.3,0.3C42.3,42.7,42.4,42.8,42.6,42.8z"/>
<path d="M41.7,41.8c0.2,0,0.3-0.1,0.3-0.3c0-0.2-0.1-0.3-0.3-0.3c-0.2,0-0.3,0.1-0.3,0.3C41.4,41.6,41.5,41.8,41.7,41.8z"/>
<path d="M40.8,40.7c0.2,0,0.3-0.1,0.3-0.3c0-0.2-0.1-0.3-0.3-0.3c-0.2,0-0.3,0.1-0.3,0.3C40.5,40.6,40.6,40.7,40.8,40.7z"/>
<path d="M39.9,39.6c0.2,0,0.3-0.1,0.3-0.3c0-0.2-0.1-0.3-0.3-0.3c-0.2,0-0.3,0.1-0.3,0.3C39.6,39.5,39.8,39.6,39.9,39.6z"/>
<path d="M39.1,38.5c0.2,0,0.3-0.1,0.3-0.3c0-0.2-0.1-0.3-0.3-0.3c-0.2,0-0.3,0.1-0.3,0.3C38.8,38.4,38.9,38.5,39.1,38.5z"/>
<path d="M38.3,37.4c0.2,0,0.3-0.1,0.3-0.3c0-0.2-0.1-0.3-0.3-0.3c-0.2,0-0.3,0.1-0.3,0.3C37.9,37.3,38.1,37.4,38.3,37.4z"/>
<path d="M37.5,36.3c0.2,0,0.3-0.1,0.3-0.3c0-0.2-0.1-0.3-0.3-0.3c-0.2,0-0.3,0.1-0.3,0.3C37.1,36.1,37.3,36.3,37.5,36.3z"/>
<circle cx="36.7" cy="34.8" r="0.3"/>
<path d="M35.9,34c0.2,0,0.3-0.1,0.3-0.3c0-0.2-0.1-0.3-0.3-0.3c-0.2,0-0.3,0.1-0.3,0.3C35.6,33.8,35.7,34,35.9,34z"/>
<path d="M35.2,32.8c0.2,0,0.3-0.1,0.3-0.3c0-0.2-0.1-0.3-0.3-0.3c-0.2,0-0.3,0.1-0.3,0.3C34.8,32.7,35,32.8,35.2,32.8z"/>
<path d="M34.5,31.6c0.2,0,0.3-0.1,0.3-0.3c0-0.2-0.1-0.3-0.3-0.3c-0.2,0-0.3,0.1-0.3,0.3C34.1,31.5,34.3,31.6,34.5,31.6z"/>
<path d="M33.8,30.4c0.2,0,0.3-0.1,0.3-0.3c0-0.2-0.1-0.3-0.3-0.3c-0.2,0-0.3,0.1-0.3,0.3C33.4,30.3,33.6,30.4,33.8,30.4z"/>
<path d="M33.1,29.2c0.2,0,0.3-0.1,0.3-0.3c0-0.2-0.1-0.3-0.3-0.3c-0.2,0-0.3,0.1-0.3,0.3C32.8,29,32.9,29.2,33.1,29.2z"/>
<path d="M32.5,28c0.2,0,0.3-0.1,0.3-0.3c0-0.2-0.1-0.3-0.3-0.3c-0.2,0-0.3,0.1-0.3,0.3C32.1,27.8,32.3,28,32.5,28z"/>
<path d="M31.9,26.7c0.2,0,0.3-0.1,0.3-0.3c0-0.2-0.1-0.3-0.3-0.3c-0.2,0-0.3,0.1-0.3,0.3C31.5,26.6,31.7,26.7,31.9,26.7z"/>
<path d="M31.3,25.4c0.2,0,0.3-0.1,0.3-0.3c0-0.2-0.1-0.3-0.3-0.3c-0.2,0-0.3,0.1-0.3,0.3C30.9,25.3,31.1,25.4,31.3,25.4z"/>
<circle cx="30.7" cy="23.9" r="0.3"/>
<path d="M30.2,22.9c0.2,0,0.3-0.1,0.3-0.3c0-0.2-0.1-0.3-0.3-0.3c-0.2,0-0.3,0.1-0.3,0.3C29.8,22.8,30,22.9,30.2,22.9z"/>
<path d="M29.6,21.6c0.2,0,0.3-0.1,0.3-0.3c0-0.2-0.1-0.3-0.3-0.3c-0.2,0-0.3,0.1-0.3,0.3C29.3,21.5,29.5,21.6,29.6,21.6z"/>
<path d="M29.2,20.3c0.2,0,0.3-0.1,0.3-0.3c0-0.2-0.1-0.3-0.3-0.3c-0.2,0-0.3,0.1-0.3,0.3C28.8,20.2,29,20.3,29.2,20.3z"/>
<circle cx="28.7" cy="18.7" r="0.3"/>
<path d="M28.3,17.7c0.2,0,0.3-0.1,0.3-0.3c0-0.2-0.1-0.3-0.3-0.3c-0.2,0-0.3,0.1-0.3,0.3C27.9,17.5,28.1,17.7,28.3,17.7z"/>
<path d="M27.9,16.4c0.2,0,0.3-0.1,0.3-0.3c0-0.2-0.1-0.3-0.3-0.3c-0.2,0-0.3,0.1-0.3,0.3C27.5,16.2,27.7,16.4,27.9,16.4z"/>
<path d="M27.5,15c0.2,0,0.3-0.1,0.3-0.3c0-0.2-0.1-0.3-0.3-0.3c-0.2,0-0.3,0.1-0.3,0.3C27.1,14.9,27.3,15,27.5,15z"/>
<path d="M27.1,13.7c0.2,0,0.3-0.1,0.3-0.3c0-0.2-0.1-0.3-0.3-0.3c-0.2,0-0.3,0.1-0.3,0.3C26.8,13.5,26.9,13.7,27.1,13.7z"/>
<path d="M26.8,12.3c0.2,0,0.3-0.1,0.3-0.3c0-0.2-0.1-0.3-0.3-0.3c-0.2,0-0.3,0.1-0.3,0.3C26.5,12.2,26.6,12.3,26.8,12.3z"/>
<path d="M26.5,11c0.2,0,0.3-0.1,0.3-0.3c0-0.2-0.1-0.3-0.3-0.3c-0.2,0-0.3,0.1-0.3,0.3C26.2,10.8,26.3,11,26.5,11z"/>
<circle cx="26.2" cy="9.3" r="0.3"/>
<path d="M26,8.2c0.2,0,0.3-0.1,0.3-0.3c0-0.2-0.1-0.3-0.3-0.3c-0.2,0-0.3,0.1-0.3,0.3C25.6,8.1,25.8,8.2,26,8.2z"/>
<path d="M25.7,6.9c0.2,0,0.3-0.1,0.3-0.3c0-0.2-0.1-0.3-0.3-0.3c-0.2,0-0.3,0.1-0.3,0.3C25.4,6.7,25.6,6.9,25.7,6.9z"/>
<path d="M25.2,2.7c0.2,0,0.3-0.1,0.3-0.3c0-0.2-0.1-0.3-0.3-0.3c-0.2,0-0.3,0.1-0.3,0.3C24.9,2.6,25.1,2.7,25.2,2.7z"/>
<path d="M25.1,1.4c0.2,0,0.3-0.1,0.3-0.3s-0.1-0.3-0.3-0.3c-0.2,0-0.3,0.1-0.3,0.3S24.9,1.4,25.1,1.4z"/>
<circle cx="43" cy="45.3" r="0.3"/>
<path d="M42.1,44.6c0.2,0,0.3-0.1,0.3-0.3c0-0.2-0.1-0.3-0.3-0.3c-0.2,0-0.3,0.1-0.3,0.3C41.8,44.4,41.9,44.6,42.1,44.6z"/>
<path d="M41.2,43.5c0.2,0,0.3-0.1,0.3-0.3c0-0.2-0.1-0.3-0.3-0.3c-0.2,0-0.3,0.1-0.3,0.3C40.8,43.4,41,43.5,41.2,43.5z"/>
<path d="M40.3,42.5c0.2,0,0.3-0.1,0.3-0.3c0-0.2-0.1-0.3-0.3-0.3c-0.2,0-0.3,0.1-0.3,0.3C39.9,42.3,40.1,42.5,40.3,42.5z"/>
<path d="M39.4,41.4c0.2,0,0.3-0.1,0.3-0.3c0-0.2-0.1-0.3-0.3-0.3c-0.2,0-0.3,0.1-0.3,0.3C39,41.3,39.2,41.4,39.4,41.4z"/>
<path d="M38.5,40.3c0.2,0,0.3-0.1,0.3-0.3c0-0.2-0.1-0.3-0.3-0.3c-0.2,0-0.3,0.1-0.3,0.3C38.2,40.2,38.3,40.3,38.5,40.3z"/>
<circle cx="37.7" cy="38.9" r="0.3"/>
<path d="M36.8,38.1c0.2,0,0.3-0.1,0.3-0.3c0-0.2-0.1-0.3-0.3-0.3c-0.2,0-0.3,0.1-0.3,0.3C36.5,38,36.7,38.1,36.8,38.1z"/>
<path d="M36,37c0.2,0,0.3-0.1,0.3-0.3c0-0.2-0.1-0.3-0.3-0.3c-0.2,0-0.3,0.1-0.3,0.3C35.7,36.8,35.9,37,36,37z"/>
<path d="M35.3,35.8c0.2,0,0.3-0.1,0.3-0.3c0-0.2-0.1-0.3-0.3-0.3c-0.2,0-0.3,0.1-0.3,0.3C34.9,35.7,35.1,35.8,35.3,35.8z"/>
<path d="M34.5,34.7c0.2,0,0.3-0.1,0.3-0.3c0-0.2-0.1-0.3-0.3-0.3c-0.2,0-0.3,0.1-0.3,0.3C34.2,34.5,34.3,34.7,34.5,34.7z"/>
<path d="M33.8,33.5c0.2,0,0.3-0.1,0.3-0.3c0-0.2-0.1-0.3-0.3-0.3c-0.2,0-0.3,0.1-0.3,0.3C33.4,33.3,33.6,33.5,33.8,33.5z"/>
<path d="M33.1,32.3c0.2,0,0.3-0.1,0.3-0.3c0-0.2-0.1-0.3-0.3-0.3c-0.2,0-0.3,0.1-0.3,0.3C32.7,32.1,32.9,32.3,33.1,32.3z"/>
<path d="M32.4,31.1c0.2,0,0.3-0.1,0.3-0.3c0-0.2-0.1-0.3-0.3-0.3c-0.2,0-0.3,0.1-0.3,0.3C32,30.9,32.2,31.1,32.4,31.1z"/>
<path d="M31.7,29.9c0.2,0,0.3-0.1,0.3-0.3c0-0.2-0.1-0.3-0.3-0.3c-0.2,0-0.3,0.1-0.3,0.3C31.4,29.7,31.5,29.9,31.7,29.9z"/>
<path d="M31.1,28.6c0.2,0,0.3-0.1,0.3-0.3c0-0.2-0.1-0.3-0.3-0.3c-0.2,0-0.3,0.1-0.3,0.3C30.7,28.5,30.9,28.6,31.1,28.6z"/>
<path d="M30.5,27.4c0.2,0,0.3-0.1,0.3-0.3c0-0.2-0.1-0.3-0.3-0.3c-0.2,0-0.3,0.1-0.3,0.3C30.1,27.2,30.3,27.4,30.5,27.4z"/>
<path d="M29.9,26.1c0.2,0,0.3-0.1,0.3-0.3c0-0.2-0.1-0.3-0.3-0.3c-0.2,0-0.3,0.1-0.3,0.3C29.5,26,29.7,26.1,29.9,26.1z"/>
<path d="M29.3,24.9c0.2,0,0.3-0.1,0.3-0.3c0-0.2-0.1-0.3-0.3-0.3c-0.2,0-0.3,0.1-0.3,0.3C29,24.7,29.1,24.9,29.3,24.9z"/>
<path d="M28.8,23.6c0.2,0,0.3-0.1,0.3-0.3c0-0.2-0.1-0.3-0.3-0.3c-0.2,0-0.3,0.1-0.3,0.3C28.4,23.4,28.6,23.6,28.8,23.6z"/>
<path d="M28.2,22.3c0.2,0,0.3-0.1,0.3-0.3c0-0.2-0.1-0.3-0.3-0.3c-0.2,0-0.3,0.1-0.3,0.3C27.9,22.1,28.1,22.3,28.2,22.3z"/>
<path d="M27.8,21c0.2,0,0.3-0.1,0.3-0.3c0-0.2-0.1-0.3-0.3-0.3c-0.2,0-0.3,0.1-0.3,0.3C27.4,20.8,27.6,21,27.8,21z"/>
<path d="M27.3,19.7c0.2,0,0.3-0.1,0.3-0.3c0-0.2-0.1-0.3-0.3-0.3c-0.2,0-0.3,0.1-0.3,0.3C27,19.5,27.1,19.7,27.3,19.7z"/>
<path d="M26.9,18.4c0.2,0,0.3-0.1,0.3-0.3c0-0.2-0.1-0.3-0.3-0.3c-0.2,0-0.3,0.1-0.3,0.3C26.5,18.2,26.7,18.4,26.9,18.4z"/>
<path d="M26.4,17c0.2,0,0.3-0.1,0.3-0.3c0-0.2-0.1-0.3-0.3-0.3c-0.2,0-0.3,0.1-0.3,0.3C26.1,16.9,26.3,17,26.4,17z"/>
<path d="M26.1,15.7c0.2,0,0.3-0.1,0.3-0.3c0-0.2-0.1-0.3-0.3-0.3c-0.2,0-0.3,0.1-0.3,0.3C25.7,15.6,25.9,15.7,26.1,15.7z"/>
<path d="M25.7,14.4c0.2,0,0.3-0.1,0.3-0.3c0-0.2-0.1-0.3-0.3-0.3s-0.3,0.1-0.3,0.3C25.4,14.2,25.5,14.4,25.7,14.4z"/>
<path d="M25.4,13c0.2,0,0.3-0.1,0.3-0.3c0-0.2-0.1-0.3-0.3-0.3c-0.2,0-0.3,0.1-0.3,0.3C25,12.9,25.2,13,25.4,13z"/>
<path d="M25,11.7c0.2,0,0.3-0.1,0.3-0.3c0-0.2-0.1-0.3-0.3-0.3c-0.2,0-0.3,0.1-0.3,0.3C24.7,11.5,24.9,11.7,25,11.7z"/>
<path d="M24.8,10.3c0.2,0,0.3-0.1,0.3-0.3c0-0.2-0.1-0.3-0.3-0.3c-0.2,0-0.3,0.1-0.3,0.3C24.4,10.1,24.6,10.3,24.8,10.3z"/>
<path d="M24.5,8.9c0.2,0,0.3-0.1,0.3-0.3c0-0.2-0.1-0.3-0.3-0.3c-0.2,0-0.3,0.1-0.3,0.3C24.2,8.8,24.3,8.9,24.5,8.9z"/>
<circle cx="23.6" cy="1.7" r="0.3"/>
<path d="M23.5,0.7c0.2,0,0.3-0.1,0.3-0.3c0-0.2-0.1-0.3-0.3-0.3c-0.2,0-0.3,0.1-0.3,0.3C23.2,0.5,23.4,0.7,23.5,0.7z"/>
<path d="M41.6,46.3c0.2,0,0.3-0.1,0.3-0.3c0-0.2-0.1-0.3-0.3-0.3c-0.2,0-0.3,0.1-0.3,0.3C41.3,46.2,41.4,46.3,41.6,46.3z"/>
<path d="M40.7,45.3c0.2,0,0.3-0.1,0.3-0.3c0-0.2-0.1-0.3-0.3-0.3c-0.2,0-0.3,0.1-0.3,0.3C40.3,45.1,40.5,45.3,40.7,45.3z"/>
<path d="M39.7,44.2c0.2,0,0.3-0.1,0.3-0.3c0-0.2-0.1-0.3-0.3-0.3c-0.2,0-0.3,0.1-0.3,0.3C39.4,44.1,39.5,44.2,39.7,44.2z"/>
<path d="M38.8,43.2c0.2,0,0.3-0.1,0.3-0.3c0-0.2-0.1-0.3-0.3-0.3c-0.2,0-0.3,0.1-0.3,0.3C38.5,43,38.6,43.2,38.8,43.2z"/>
<path d="M37.9,42.1c0.2,0,0.3-0.1,0.3-0.3c0-0.2-0.1-0.3-0.3-0.3c-0.2,0-0.3,0.1-0.3,0.3C37.6,42,37.8,42.1,37.9,42.1z"/>
<path d="M37.1,41c0.2,0,0.3-0.1,0.3-0.3c0-0.2-0.1-0.3-0.3-0.3c-0.2,0-0.3,0.1-0.3,0.3C36.8,40.9,36.9,41,37.1,41z"/>
<path d="M36.2,39.9c0.2,0,0.3-0.1,0.3-0.3c0-0.2-0.1-0.3-0.3-0.3c-0.2,0-0.3,0.1-0.3,0.3C35.9,39.8,36.1,39.9,36.2,39.9z"/>
<path d="M35.4,38.8c0.2,0,0.3-0.1,0.3-0.3c0-0.2-0.1-0.3-0.3-0.3c-0.2,0-0.3,0.1-0.3,0.3C35.1,38.6,35.2,38.8,35.4,38.8z"/>
<path d="M34.6,37.7c0.2,0,0.3-0.1,0.3-0.3c0-0.2-0.1-0.3-0.3-0.3c-0.2,0-0.3,0.1-0.3,0.3C34.3,37.5,34.5,37.7,34.6,37.7z"/>
<circle cx="33.9" cy="36.2" r="0.3"/>
<path d="M33.1,35.3c0.2,0,0.3-0.1,0.3-0.3c0-0.2-0.1-0.3-0.3-0.3c-0.2,0-0.3,0.1-0.3,0.3C32.8,35.2,32.9,35.3,33.1,35.3z"/>
<circle cx="32.4" cy="33.8" r="0.3"/>
<path d="M31.7,33c0.2,0,0.3-0.1,0.3-0.3c0-0.2-0.1-0.3-0.3-0.3c-0.2,0-0.3,0.1-0.3,0.3C31.3,32.8,31.5,33,31.7,33z"/>
<path d="M31,31.7c0.2,0,0.3-0.1,0.3-0.3c0-0.2-0.1-0.3-0.3-0.3c-0.2,0-0.3,0.1-0.3,0.3C30.7,31.6,30.8,31.7,31,31.7z"/>
<path d="M30.3,30.5c0.2,0,0.3-0.1,0.3-0.3c0-0.2-0.1-0.3-0.3-0.3c-0.2,0-0.3,0.1-0.3,0.3C30,30.4,30.1,30.5,30.3,30.5z"/>
<path d="M29.7,29.3c0.2,0,0.3-0.1,0.3-0.3c0-0.2-0.1-0.3-0.3-0.3c-0.2,0-0.3,0.1-0.3,0.3C29.4,29.1,29.5,29.3,29.7,29.3z"/>
<circle cx="29.1" cy="27.7" r="0.3"/>
<path d="M28.5,26.8c0.2,0,0.3-0.1,0.3-0.3c0-0.2-0.1-0.3-0.3-0.3c-0.2,0-0.3,0.1-0.3,0.3C28.1,26.6,28.3,26.8,28.5,26.8z"/>
<path d="M27.9,25.5c0.2,0,0.3-0.1,0.3-0.3c0-0.2-0.1-0.3-0.3-0.3c-0.2,0-0.3,0.1-0.3,0.3C27.6,25.4,27.7,25.5,27.9,25.5z"/>
<path d="M27.4,24.2c0.2,0,0.3-0.1,0.3-0.3c0-0.2-0.1-0.3-0.3-0.3c-0.2,0-0.3,0.1-0.3,0.3C27,24.1,27.2,24.2,27.4,24.2z"/>
<path d="M26.9,23c0.2,0,0.3-0.1,0.3-0.3c0-0.2-0.1-0.3-0.3-0.3c-0.2,0-0.3,0.1-0.3,0.3C26.5,22.8,26.7,23,26.9,23z"/>
<path d="M26.4,21.7c0.2,0,0.3-0.1,0.3-0.3c0-0.2-0.1-0.3-0.3-0.3c-0.2,0-0.3,0.1-0.3,0.3C26,21.5,26.2,21.7,26.4,21.7z"/>
<path d="M25.9,20.4c0.2,0,0.3-0.1,0.3-0.3c0-0.2-0.1-0.3-0.3-0.3c-0.2,0-0.3,0.1-0.3,0.3C25.6,20.2,25.7,20.4,25.9,20.4z"/>
<path d="M25.4,19c0.2,0,0.3-0.1,0.3-0.3c0-0.2-0.1-0.3-0.3-0.3c-0.2,0-0.3,0.1-0.3,0.3C25.1,18.9,25.3,19,25.4,19z"/>
<path d="M25,17.7c0.2,0,0.3-0.1,0.3-0.3c0-0.2-0.1-0.3-0.3-0.3c-0.2,0-0.3,0.1-0.3,0.3C24.7,17.6,24.8,17.7,25,17.7z"/>
<path d="M24.6,16.4c0.2,0,0.3-0.1,0.3-0.3c0-0.2-0.1-0.3-0.3-0.3c-0.2,0-0.3,0.1-0.3,0.3C24.3,16.2,24.5,16.4,24.6,16.4z"/>
<path d="M24.3,15c0.2,0,0.3-0.1,0.3-0.3c0-0.2-0.1-0.3-0.3-0.3c-0.2,0-0.3,0.1-0.3,0.3C23.9,14.9,24.1,15,24.3,15z"/>
<path d="M23.9,13.7c0.2,0,0.3-0.1,0.3-0.3c0-0.2-0.1-0.3-0.3-0.3c-0.2,0-0.3,0.1-0.3,0.3C23.6,13.5,23.7,13.7,23.9,13.7z"/>
<path d="M23.6,12.3c0.2,0,0.3-0.1,0.3-0.3c0-0.2-0.1-0.3-0.3-0.3c-0.2,0-0.3,0.1-0.3,0.3C23.3,12.2,23.4,12.3,23.6,12.3z"/>
<path d="M23.3,11c0.2,0,0.3-0.1,0.3-0.3c0-0.2-0.1-0.3-0.3-0.3c-0.2,0-0.3,0.1-0.3,0.3C23,10.8,23.1,11,23.3,11z"/>
<path d="M23.1,9.6c0.2,0,0.3-0.1,0.3-0.3c0-0.2-0.1-0.3-0.3-0.3c-0.2,0-0.3,0.1-0.3,0.3C22.7,9.5,22.9,9.6,23.1,9.6z"/>
<path d="M22.8,8.3c0.2,0,0.3-0.1,0.3-0.3c0-0.2-0.1-0.3-0.3-0.3c-0.2,0-0.3,0.1-0.3,0.3C22.5,8.1,22.6,8.3,22.8,8.3z"/>
<path d="M22.1,2.7c0.2,0,0.3-0.1,0.3-0.3c0-0.2-0.1-0.3-0.3-0.3c-0.2,0-0.3,0.1-0.3,0.3C21.8,2.6,22,2.7,22.1,2.7z"/>
<path d="M22,1.4c0.2,0,0.3-0.1,0.3-0.3c0-0.2-0.1-0.3-0.3-0.3c-0.2,0-0.3,0.1-0.3,0.3C21.7,1.2,21.8,1.4,22,1.4z"/>
<path d="M40.1,47c0.2,0,0.3-0.1,0.3-0.3c0-0.2-0.1-0.3-0.3-0.3c-0.2,0-0.3,0.1-0.3,0.3C39.8,46.9,40,47,40.1,47z"/>
<path d="M39.2,46c0.2,0,0.3-0.1,0.3-0.3c0-0.2-0.1-0.3-0.3-0.3c-0.2,0-0.3,0.1-0.3,0.3C38.9,45.8,39,46,39.2,46z"/>
<path d="M38.3,44.9c0.2,0,0.3-0.1,0.3-0.3c0-0.2-0.1-0.3-0.3-0.3c-0.2,0-0.3,0.1-0.3,0.3C38,44.8,38.1,44.9,38.3,44.9z"/>
<path d="M37.4,43.9c0.2,0,0.3-0.1,0.3-0.3c0-0.2-0.1-0.3-0.3-0.3c-0.2,0-0.3,0.1-0.3,0.3C37.1,43.7,37.2,43.9,37.4,43.9z"/>
<path d="M36.5,42.8c0.2,0,0.3-0.1,0.3-0.3c0-0.2-0.1-0.3-0.3-0.3c-0.2,0-0.3,0.1-0.3,0.3C36.2,42.7,36.3,42.8,36.5,42.8z"/>
<path d="M35.7,41.7c0.2,0,0.3-0.1,0.3-0.3c0-0.2-0.1-0.3-0.3-0.3c-0.2,0-0.3,0.1-0.3,0.3C35.3,41.6,35.5,41.7,35.7,41.7z"/>
<path d="M34.8,40.6c0.2,0,0.3-0.1,0.3-0.3c0-0.2-0.1-0.3-0.3-0.3c-0.2,0-0.3,0.1-0.3,0.3C34.5,40.5,34.6,40.6,34.8,40.6z"/>
<path d="M34,39.5c0.2,0,0.3-0.1,0.3-0.3c0-0.2-0.1-0.3-0.3-0.3c-0.2,0-0.3,0.1-0.3,0.3C33.7,39.3,33.8,39.5,34,39.5z"/>
<path d="M33.2,38.3c0.2,0,0.3-0.1,0.3-0.3c0-0.2-0.1-0.3-0.3-0.3c-0.2,0-0.3,0.1-0.3,0.3C32.9,38.2,33,38.3,33.2,38.3z"/>
<path d="M32.5,37.2c0.2,0,0.3-0.1,0.3-0.3c0-0.2-0.1-0.3-0.3-0.3c-0.2,0-0.3,0.1-0.3,0.3C32.1,37,32.3,37.2,32.5,37.2z"/>
<circle cx="31.7" cy="35.7" r="0.3"/>
<path d="M31,34.8c0.2,0,0.3-0.1,0.3-0.3c0-0.2-0.1-0.3-0.3-0.3c-0.2,0-0.3,0.1-0.3,0.3C30.6,34.7,30.8,34.8,31,34.8z"/>
<path d="M30.3,33.6c0.2,0,0.3-0.1,0.3-0.3c0-0.2-0.1-0.3-0.3-0.3c-0.2,0-0.3,0.1-0.3,0.3C29.9,33.5,30.1,33.6,30.3,33.6z"/>
<path d="M29.6,32.4c0.2,0,0.3-0.1,0.3-0.3c0-0.2-0.1-0.3-0.3-0.3c-0.2,0-0.3,0.1-0.3,0.3C29.3,32.3,29.4,32.4,29.6,32.4z"/>
<path d="M28.9,31.2c0.2,0,0.3-0.1,0.3-0.3c0-0.2-0.1-0.3-0.3-0.3c-0.2,0-0.3,0.1-0.3,0.3C28.6,31.1,28.7,31.2,28.9,31.2z"/>
<path d="M28.3,30c0.2,0,0.3-0.1,0.3-0.3c0-0.2-0.1-0.3-0.3-0.3c-0.2,0-0.3,0.1-0.3,0.3C28,29.8,28.1,30,28.3,30z"/>
<path d="M27.7,28.7c0.2,0,0.3-0.1,0.3-0.3c0-0.2-0.1-0.3-0.3-0.3c-0.2,0-0.3,0.1-0.3,0.3C27.3,28.6,27.5,28.7,27.7,28.7z"/>
<path d="M27.1,27.5c0.2,0,0.3-0.1,0.3-0.3c0-0.2-0.1-0.3-0.3-0.3c-0.2,0-0.3,0.1-0.3,0.3C26.8,27.3,26.9,27.5,27.1,27.5z"/>
<path d="M26.5,26.2c0.2,0,0.3-0.1,0.3-0.3c0-0.2-0.1-0.3-0.3-0.3c-0.2,0-0.3,0.1-0.3,0.3C26.2,26,26.3,26.2,26.5,26.2z"/>
<path d="M26,24.9c0.2,0,0.3-0.1,0.3-0.3c0-0.2-0.1-0.3-0.3-0.3c-0.2,0-0.3,0.1-0.3,0.3C25.6,24.8,25.8,24.9,26,24.9z"/>
<path d="M25.5,23.6c0.2,0,0.3-0.1,0.3-0.3c0-0.2-0.1-0.3-0.3-0.3c-0.2,0-0.3,0.1-0.3,0.3C25.1,23.5,25.3,23.6,25.5,23.6z"/>
<path d="M25,22.3c0.2,0,0.3-0.1,0.3-0.3c0-0.2-0.1-0.3-0.3-0.3c-0.2,0-0.3,0.1-0.3,0.3C24.6,22.2,24.8,22.3,25,22.3z"/>
<circle cx="24.5" cy="20.7" r="0.3"/>
<circle cx="24" cy="19.4" r="0.3"/>
<path d="M23.6,18.4c0.2,0,0.3-0.1,0.3-0.3c0-0.2-0.1-0.3-0.3-0.3c-0.2,0-0.3,0.1-0.3,0.3C23.3,18.2,23.4,18.4,23.6,18.4z"/>
<path d="M23.2,17.1c0.2,0,0.3-0.1,0.3-0.3c0-0.2-0.1-0.3-0.3-0.3c-0.2,0-0.3,0.1-0.3,0.3C22.9,16.9,23,17.1,23.2,17.1z"/>
<path d="M22.9,15.7c0.2,0,0.3-0.1,0.3-0.3s-0.1-0.3-0.3-0.3c-0.2,0-0.3,0.1-0.3,0.3S22.7,15.7,22.9,15.7z"/>
<path d="M22.5,14.4c0.2,0,0.3-0.1,0.3-0.3c0-0.2-0.1-0.3-0.3-0.3c-0.2,0-0.3,0.1-0.3,0.3C22.2,14.2,22.3,14.4,22.5,14.4z"/>
<path d="M22.2,13c0.2,0,0.3-0.1,0.3-0.3c0-0.2-0.1-0.3-0.3-0.3c-0.2,0-0.3,0.1-0.3,0.3C21.9,12.9,22,13,22.2,13z"/>
<circle cx="21.9" cy="11.3" r="0.3"/>
<path d="M21.6,10.3c0.2,0,0.3-0.1,0.3-0.3c0-0.2-0.1-0.3-0.3-0.3c-0.2,0-0.3,0.1-0.3,0.3C21.3,10.2,21.4,10.3,21.6,10.3z"/>
<path d="M38.7,47.7c0.2,0,0.3-0.1,0.3-0.3c0-0.2-0.1-0.3-0.3-0.3c-0.2,0-0.3,0.1-0.3,0.3C38.4,47.6,38.5,47.7,38.7,47.7z"/>
<path d="M37.8,46.7c0.2,0,0.3-0.1,0.3-0.3c0-0.2-0.1-0.3-0.3-0.3c-0.2,0-0.3,0.1-0.3,0.3C37.4,46.5,37.6,46.7,37.8,46.7z"/>
<path d="M36.9,45.6c0.2,0,0.3-0.1,0.3-0.3c0-0.2-0.1-0.3-0.3-0.3c-0.2,0-0.3,0.1-0.3,0.3C36.5,45.5,36.7,45.6,36.9,45.6z"/>
<path d="M36,44.6c0.2,0,0.3-0.1,0.3-0.3c0-0.2-0.1-0.3-0.3-0.3c-0.2,0-0.3,0.1-0.3,0.3C35.6,44.4,35.8,44.6,36,44.6z"/>
<path d="M35.1,43.5c0.2,0,0.3-0.1,0.3-0.3c0-0.2-0.1-0.3-0.3-0.3c-0.2,0-0.3,0.1-0.3,0.3C34.8,43.3,34.9,43.5,35.1,43.5z"/>
<path d="M34.2,42.4c0.2,0,0.3-0.1,0.3-0.3c0-0.2-0.1-0.3-0.3-0.3c-0.2,0-0.3,0.1-0.3,0.3C33.9,42.2,34.1,42.4,34.2,42.4z"/>
<path d="M33.4,41.3c0.2,0,0.3-0.1,0.3-0.3c0-0.2-0.1-0.3-0.3-0.3c-0.2,0-0.3,0.1-0.3,0.3C33.1,41.1,33.2,41.3,33.4,41.3z"/>
<path d="M32.6,40.2c0.2,0,0.3-0.1,0.3-0.3c0-0.2-0.1-0.3-0.3-0.3c-0.2,0-0.3,0.1-0.3,0.3C32.3,40,32.4,40.2,32.6,40.2z"/>
<path d="M31.8,39c0.2,0,0.3-0.1,0.3-0.3c0-0.2-0.1-0.3-0.3-0.3c-0.2,0-0.3,0.1-0.3,0.3C31.5,38.9,31.6,39,31.8,39z"/>
<path d="M31,37.9c0.2,0,0.3-0.1,0.3-0.3c0-0.2-0.1-0.3-0.3-0.3c-0.2,0-0.3,0.1-0.3,0.3C30.7,37.7,30.9,37.9,31,37.9z"/>
<path d="M30.3,36.7c0.2,0,0.3-0.1,0.3-0.3c0-0.2-0.1-0.3-0.3-0.3c-0.2,0-0.3,0.1-0.3,0.3C30,36.5,30.1,36.7,30.3,36.7z"/>
<path d="M29.6,35.5c0.2,0,0.3-0.1,0.3-0.3c0-0.2-0.1-0.3-0.3-0.3c-0.2,0-0.3,0.1-0.3,0.3C29.2,35.4,29.4,35.5,29.6,35.5z"/>
<circle cx="28.9" cy="34" r="0.3"/>
<circle cx="28.2" cy="32.8" r="0.3"/>
<path d="M27.5,31.9c0.2,0,0.3-0.1,0.3-0.3c0-0.2-0.1-0.3-0.3-0.3c-0.2,0-0.3,0.1-0.3,0.3C27.2,31.7,27.3,31.9,27.5,31.9z"/>
<path d="M26.9,30.6c0.2,0,0.3-0.1,0.3-0.3c0-0.2-0.1-0.3-0.3-0.3c-0.2,0-0.3,0.1-0.3,0.3C26.6,30.5,26.7,30.6,26.9,30.6z"/>
<path d="M26.3,29.4c0.2,0,0.3-0.1,0.3-0.3c0-0.2-0.1-0.3-0.3-0.3c-0.2,0-0.3,0.1-0.3,0.3C26,29.2,26.1,29.4,26.3,29.4z"/>
<path d="M25.7,28.1c0.2,0,0.3-0.1,0.3-0.3c0-0.2-0.1-0.3-0.3-0.3c-0.2,0-0.3,0.1-0.3,0.3C25.4,28,25.5,28.1,25.7,28.1z"/>
<path d="M25.1,26.9c0.2,0,0.3-0.1,0.3-0.3c0-0.2-0.1-0.3-0.3-0.3c-0.2,0-0.3,0.1-0.3,0.3C24.8,26.7,24.9,26.9,25.1,26.9z"/>
<path d="M24.6,25.6c0.2,0,0.3-0.1,0.3-0.3c0-0.2-0.1-0.3-0.3-0.3c-0.2,0-0.3,0.1-0.3,0.3C24.2,25.4,24.4,25.6,24.6,25.6z"/>
<path d="M24.1,24.3c0.2,0,0.3-0.1,0.3-0.3c0-0.2-0.1-0.3-0.3-0.3c-0.2,0-0.3,0.1-0.3,0.3C23.7,24.2,23.9,24.3,24.1,24.3z"/>
<path d="M23.6,23c0.2,0,0.3-0.1,0.3-0.3c0-0.2-0.1-0.3-0.3-0.3c-0.2,0-0.3,0.1-0.3,0.3C23.2,22.9,23.4,23,23.6,23z"/>
<circle cx="23.1" cy="21.4" r="0.3"/>
<path d="M22.6,20.4c0.2,0,0.3-0.1,0.3-0.3c0-0.2-0.1-0.3-0.3-0.3c-0.2,0-0.3,0.1-0.3,0.3C22.3,20.2,22.5,20.4,22.6,20.4z"/>
<path d="M22.2,19.1c0.2,0,0.3-0.1,0.3-0.3c0-0.2-0.1-0.3-0.3-0.3c-0.2,0-0.3,0.1-0.3,0.3C21.9,18.9,22,19.1,22.2,19.1z"/>
<path d="M21.8,17.7c0.2,0,0.3-0.1,0.3-0.3c0-0.2-0.1-0.3-0.3-0.3c-0.2,0-0.3,0.1-0.3,0.3C21.5,17.6,21.6,17.7,21.8,17.7z"/>
<path d="M21.4,16.4c0.2,0,0.3-0.1,0.3-0.3c0-0.2-0.1-0.3-0.3-0.3c-0.2,0-0.3,0.1-0.3,0.3C21.1,16.3,21.2,16.4,21.4,16.4z"/>
<path d="M21.1,15.1c0.2,0,0.3-0.1,0.3-0.3c0-0.2-0.1-0.3-0.3-0.3c-0.2,0-0.3,0.1-0.3,0.3C20.7,14.9,20.9,15.1,21.1,15.1z"/>
<path d="M20.8,13.7c0.2,0,0.3-0.1,0.3-0.3c0-0.2-0.1-0.3-0.3-0.3c-0.2,0-0.3,0.1-0.3,0.3C20.4,13.6,20.6,13.7,20.8,13.7z"/>
<path d="M20.4,12.4c0.2,0,0.3-0.1,0.3-0.3c0-0.2-0.1-0.3-0.3-0.3c-0.2,0-0.3,0.1-0.3,0.3C20.1,12.2,20.3,12.4,20.4,12.4z"/>
<path d="M20.2,11c0.2,0,0.3-0.1,0.3-0.3c0-0.2-0.1-0.3-0.3-0.3c-0.2,0-0.3,0.1-0.3,0.3C19.8,10.8,20,11,20.2,11z"/>
<circle cx="19.9" cy="9.3" r="0.3"/>
<path d="M39.2,50.5c0.2,0,0.3-0.1,0.3-0.3c0-0.2-0.1-0.3-0.3-0.3c-0.2,0-0.3,0.1-0.3,0.3C38.8,50.3,39,50.5,39.2,50.5z"/>
<path d="M38.2,49.5c0.2,0,0.3-0.1,0.3-0.3c0-0.2-0.1-0.3-0.3-0.3c-0.2,0-0.3,0.1-0.3,0.3C37.9,49.3,38,49.5,38.2,49.5z"/>
<path d="M37.3,48.4c0.2,0,0.3-0.1,0.3-0.3c0-0.2-0.1-0.3-0.3-0.3c-0.2,0-0.3,0.1-0.3,0.3C36.9,48.3,37.1,48.4,37.3,48.4z"/>
<path d="M36.3,47.4c0.2,0,0.3-0.1,0.3-0.3c0-0.2-0.1-0.3-0.3-0.3c-0.2,0-0.3,0.1-0.3,0.3C36,47.2,36.1,47.4,36.3,47.4z"/>
<path d="M35.4,46.3c0.2,0,0.3-0.1,0.3-0.3c0-0.2-0.1-0.3-0.3-0.3c-0.2,0-0.3,0.1-0.3,0.3C35.1,46.2,35.2,46.3,35.4,46.3z"/>
<path d="M34.5,45.3c0.2,0,0.3-0.1,0.3-0.3c0-0.2-0.1-0.3-0.3-0.3c-0.2,0-0.3,0.1-0.3,0.3C34.2,45.1,34.4,45.3,34.5,45.3z"/>
<path d="M33.7,44.2c0.2,0,0.3-0.1,0.3-0.3c0-0.2-0.1-0.3-0.3-0.3c-0.2,0-0.3,0.1-0.3,0.3C33.3,44,33.5,44.2,33.7,44.2z"/>
<path d="M32.8,43.1c0.2,0,0.3-0.1,0.3-0.3c0-0.2-0.1-0.3-0.3-0.3c-0.2,0-0.3,0.1-0.3,0.3C32.5,42.9,32.6,43.1,32.8,43.1z"/>
<path d="M32,42c0.2,0,0.3-0.1,0.3-0.3c0-0.2-0.1-0.3-0.3-0.3c-0.2,0-0.3,0.1-0.3,0.3C31.7,41.8,31.8,42,32,42z"/>
<path d="M31.2,40.8c0.2,0,0.3-0.1,0.3-0.3c0-0.2-0.1-0.3-0.3-0.3c-0.2,0-0.3,0.1-0.3,0.3C30.9,40.7,31,40.8,31.2,40.8z"/>
<circle cx="30.4" cy="39.4" r="0.3"/>
<path d="M29.6,38.5c0.2,0,0.3-0.1,0.3-0.3c0-0.2-0.1-0.3-0.3-0.3c-0.2,0-0.3,0.1-0.3,0.3C29.3,38.4,29.5,38.5,29.6,38.5z"/>
<path d="M28.9,37.4c0.2,0,0.3-0.1,0.3-0.3c0-0.2-0.1-0.3-0.3-0.3c-0.2,0-0.3,0.1-0.3,0.3C28.6,37.2,28.7,37.4,28.9,37.4z"/>
<path d="M28.2,36.2c0.2,0,0.3-0.1,0.3-0.3c0-0.2-0.1-0.3-0.3-0.3c-0.2,0-0.3,0.1-0.3,0.3C27.8,36,28,36.2,28.2,36.2z"/>
<path d="M27.5,35c0.2,0,0.3-0.1,0.3-0.3c0-0.2-0.1-0.3-0.3-0.3c-0.2,0-0.3,0.1-0.3,0.3C27.1,34.8,27.3,35,27.5,35z"/>
<path d="M25.5,31.3c0.2,0,0.3-0.1,0.3-0.3c0-0.2-0.1-0.3-0.3-0.3c-0.2,0-0.3,0.1-0.3,0.3C25.2,31.2,25.3,31.3,25.5,31.3z"/>
<path d="M24.9,30.1c0.2,0,0.3-0.1,0.3-0.3c0-0.2-0.1-0.3-0.3-0.3c-0.2,0-0.3,0.1-0.3,0.3C24.6,29.9,24.7,30.1,24.9,30.1z"/>
<path d="M24.3,28.8c0.2,0,0.3-0.1,0.3-0.3c0-0.2-0.1-0.3-0.3-0.3S24,28.3,24,28.5C24,28.7,24.1,28.8,24.3,28.8z"/>
<path d="M23.7,27.5c0.2,0,0.3-0.1,0.3-0.3c0-0.2-0.1-0.3-0.3-0.3c-0.2,0-0.3,0.1-0.3,0.3C23.4,27.4,23.5,27.5,23.7,27.5z"/>
<circle cx="23.2" cy="25.9" r="0.3"/>
<path d="M22.7,25c0.2,0,0.3-0.1,0.3-0.3c0-0.2-0.1-0.3-0.3-0.3c-0.2,0-0.3,0.1-0.3,0.3C22.3,24.8,22.5,25,22.7,25z"/>
<path d="M22.2,23.7c0.2,0,0.3-0.1,0.3-0.3c0-0.2-0.1-0.3-0.3-0.3c-0.2,0-0.3,0.1-0.3,0.3C21.8,23.5,22,23.7,22.2,23.7z"/>
<path d="M21.7,22.4c0.2,0,0.3-0.1,0.3-0.3c0-0.2-0.1-0.3-0.3-0.3c-0.2,0-0.3,0.1-0.3,0.3C21.4,22.2,21.5,22.4,21.7,22.4z"/>
<path d="M21.2,21.1c0.2,0,0.3-0.1,0.3-0.3c0-0.2-0.1-0.3-0.3-0.3c-0.2,0-0.3,0.1-0.3,0.3C20.9,20.9,21,21.1,21.2,21.1z"/>
<circle cx="20.8" cy="19.4" r="0.3"/>
<path d="M20.4,18.4c0.2,0,0.3-0.1,0.3-0.3c0-0.2-0.1-0.3-0.3-0.3c-0.2,0-0.3,0.1-0.3,0.3C20.1,18.3,20.2,18.4,20.4,18.4z"/>
<path d="M20,17.1c0.2,0,0.3-0.1,0.3-0.3c0-0.2-0.1-0.3-0.3-0.3c-0.2,0-0.3,0.1-0.3,0.3C19.7,16.9,19.8,17.1,20,17.1z"/>
<circle cx="19.7" cy="15.4" r="0.3"/>
<path d="M18.7,11.7c0.2,0,0.3-0.1,0.3-0.3c0-0.2-0.1-0.3-0.3-0.3c-0.2,0-0.3,0.1-0.3,0.3C18.4,11.5,18.5,11.7,18.7,11.7z"/>
<path d="M18.5,10.3c0.2,0,0.3-0.1,0.3-0.3c0-0.2-0.1-0.3-0.3-0.3c-0.2,0-0.3,0.1-0.3,0.3C18.1,10.2,18.3,10.3,18.5,10.3z"/>
<path d="M17.5,3.4c0.2,0,0.3-0.1,0.3-0.3c0-0.2-0.1-0.3-0.3-0.3c-0.2,0-0.3,0.1-0.3,0.3C17.2,3.3,17.4,3.4,17.5,3.4z"/>
<circle cx="36.7" cy="49.8" r="0.3"/>
<path d="M35.8,49.1c0.2,0,0.3-0.1,0.3-0.3c0-0.2-0.1-0.3-0.3-0.3c-0.2,0-0.3,0.1-0.3,0.3C35.5,49,35.6,49.1,35.8,49.1z"/>
<path d="M34.9,48.1c0.2,0,0.3-0.1,0.3-0.3c0-0.2-0.1-0.3-0.3-0.3c-0.2,0-0.3,0.1-0.3,0.3C34.6,48,34.7,48.1,34.9,48.1z"/>
<path d="M34,47c0.2,0,0.3-0.1,0.3-0.3c0-0.2-0.1-0.3-0.3-0.3c-0.2,0-0.3,0.1-0.3,0.3C33.7,46.9,33.8,47,34,47z"/>
<path d="M33.1,46c0.2,0,0.3-0.1,0.3-0.3c0-0.2-0.1-0.3-0.3-0.3c-0.2,0-0.3,0.1-0.3,0.3C32.8,45.8,32.9,46,33.1,46z"/>
<path d="M32.2,44.9c0.2,0,0.3-0.1,0.3-0.3c0-0.2-0.1-0.3-0.3-0.3c-0.2,0-0.3,0.1-0.3,0.3C31.9,44.7,32.1,44.9,32.2,44.9z"/>
<path d="M31.4,43.8c0.2,0,0.3-0.1,0.3-0.3c0-0.2-0.1-0.3-0.3-0.3c-0.2,0-0.3,0.1-0.3,0.3C31.1,43.6,31.2,43.8,31.4,43.8z"/>
<path d="M30.6,42.7c0.2,0,0.3-0.1,0.3-0.3c0-0.2-0.1-0.3-0.3-0.3c-0.2,0-0.3,0.1-0.3,0.3C30.3,42.5,30.4,42.7,30.6,42.7z"/>
<path d="M29.8,41.5c0.2,0,0.3-0.1,0.3-0.3c0-0.2-0.1-0.3-0.3-0.3c-0.2,0-0.3,0.1-0.3,0.3C29.5,41.4,29.6,41.5,29.8,41.5z"/>
<path d="M29,40.4c0.2,0,0.3-0.1,0.3-0.3c0-0.2-0.1-0.3-0.3-0.3c-0.2,0-0.3,0.1-0.3,0.3C28.7,40.2,28.8,40.4,29,40.4z"/>
<path d="M28.2,39.2c0.2,0,0.3-0.1,0.3-0.3c0-0.2-0.1-0.3-0.3-0.3c-0.2,0-0.3,0.1-0.3,0.3C27.9,39.1,28.1,39.2,28.2,39.2z"/>
<path d="M27.5,38c0.2,0,0.3-0.1,0.3-0.3c0-0.2-0.1-0.3-0.3-0.3c-0.2,0-0.3,0.1-0.3,0.3C27.2,37.9,27.3,38,27.5,38z"/>
<path d="M24.1,32c0.2,0,0.3-0.1,0.3-0.3c0-0.2-0.1-0.3-0.3-0.3c-0.2,0-0.3,0.1-0.3,0.3C23.8,31.8,23.9,32,24.1,32z"/>
<circle cx="23.5" cy="30.4" r="0.3"/>
<path d="M22.9,29.5c0.2,0,0.3-0.1,0.3-0.3c0-0.2-0.1-0.3-0.3-0.3c-0.2,0-0.3,0.1-0.3,0.3C22.6,29.3,22.7,29.5,22.9,29.5z"/>
<path d="M22.3,28.2c0.2,0,0.3-0.1,0.3-0.3c0-0.2-0.1-0.3-0.3-0.3c-0.2,0-0.3,0.1-0.3,0.3C22,28.1,22.1,28.2,22.3,28.2z"/>
<path d="M21.8,26.9c0.2,0,0.3-0.1,0.3-0.3c0-0.2-0.1-0.3-0.3-0.3c-0.2,0-0.3,0.1-0.3,0.3C21.5,26.8,21.6,26.9,21.8,26.9z"/>
<path d="M21.3,25.6c0.2,0,0.3-0.1,0.3-0.3c0-0.2-0.1-0.3-0.3-0.3c-0.2,0-0.3,0.1-0.3,0.3C20.9,25.5,21.1,25.6,21.3,25.6z"/>
<path d="M20.8,24.4c0.2,0,0.3-0.1,0.3-0.3c0-0.2-0.1-0.3-0.3-0.3c-0.2,0-0.3,0.1-0.3,0.3C20.4,24.2,20.6,24.4,20.8,24.4z"/>
<path d="M20.3,23.1c0.2,0,0.3-0.1,0.3-0.3c0-0.2-0.1-0.3-0.3-0.3c-0.2,0-0.3,0.1-0.3,0.3C19.9,22.9,20.1,23.1,20.3,23.1z"/>
<path d="M19.8,21.7c0.2,0,0.3-0.1,0.3-0.3c0-0.2-0.1-0.3-0.3-0.3c-0.2,0-0.3,0.1-0.3,0.3C19.5,21.6,19.6,21.7,19.8,21.7z"/>
<path d="M19.4,20.4c0.2,0,0.3-0.1,0.3-0.3c0-0.2-0.1-0.3-0.3-0.3s-0.3,0.1-0.3,0.3C19.1,20.3,19.2,20.4,19.4,20.4z"/>
<path d="M19,19.1c0.2,0,0.3-0.1,0.3-0.3c0-0.2-0.1-0.3-0.3-0.3c-0.2,0-0.3,0.1-0.3,0.3C18.7,18.9,18.8,19.1,19,19.1z"/>
<circle cx="16.8" cy="9.3" r="0.3"/>
<path d="M16.6,8.3c0.2,0,0.3-0.1,0.3-0.3c0-0.2-0.1-0.3-0.3-0.3c-0.2,0-0.3,0.1-0.3,0.3C16.2,8.1,16.4,8.3,16.6,8.3z"/>
<path d="M16.4,6.9c0.2,0,0.3-0.1,0.3-0.3c0-0.2-0.1-0.3-0.3-0.3c-0.2,0-0.3,0.1-0.3,0.3C16,6.7,16.2,6.9,16.4,6.9z"/>
<path d="M16.2,5.5c0.2,0,0.3-0.1,0.3-0.3s-0.1-0.3-0.3-0.3c-0.2,0-0.3,0.1-0.3,0.3S16,5.5,16.2,5.5z"/>
<path d="M16,4.1c0.2,0,0.3-0.1,0.3-0.3c0-0.2-0.1-0.3-0.3-0.3c-0.2,0-0.3,0.1-0.3,0.3C15.7,4,15.9,4.1,16,4.1z"/>
<path d="M36.2,51.9c0.2,0,0.3-0.1,0.3-0.3c0-0.2-0.1-0.3-0.3-0.3c-0.2,0-0.3,0.1-0.3,0.3C35.9,51.7,36.1,51.9,36.2,51.9z"/>
<path d="M35.3,50.9c0.2,0,0.3-0.1,0.3-0.3c0-0.2-0.1-0.3-0.3-0.3c-0.2,0-0.3,0.1-0.3,0.3C35,50.7,35.1,50.9,35.3,50.9z"/>
<circle cx="34.4" cy="49.5" r="0.3"/>
<path d="M33.5,48.8c0.2,0,0.3-0.1,0.3-0.3c0-0.2-0.1-0.3-0.3-0.3c-0.2,0-0.3,0.1-0.3,0.3C33.1,48.7,33.3,48.8,33.5,48.8z"/>
<path d="M32.6,47.7c0.2,0,0.3-0.1,0.3-0.3c0-0.2-0.1-0.3-0.3-0.3c-0.2,0-0.3,0.1-0.3,0.3C32.2,47.6,32.4,47.7,32.6,47.7z"/>
<path d="M31.7,46.7c0.2,0,0.3-0.1,0.3-0.3c0-0.2-0.1-0.3-0.3-0.3c-0.2,0-0.3,0.1-0.3,0.3C31.4,46.5,31.5,46.7,31.7,46.7z"/>
<path d="M30.8,45.6c0.2,0,0.3-0.1,0.3-0.3c0-0.2-0.1-0.3-0.3-0.3c-0.2,0-0.3,0.1-0.3,0.3C30.5,45.4,30.6,45.6,30.8,45.6z"/>
<path d="M30,44.5c0.2,0,0.3-0.1,0.3-0.3c0-0.2-0.1-0.3-0.3-0.3c-0.2,0-0.3,0.1-0.3,0.3C29.7,44.3,29.8,44.5,30,44.5z"/>
<path d="M29.2,43.3c0.2,0,0.3-0.1,0.3-0.3c0-0.2-0.1-0.3-0.3-0.3c-0.2,0-0.3,0.1-0.3,0.3C28.8,43.2,29,43.3,29.2,43.3z"/>
<path d="M28.4,42.2c0.2,0,0.3-0.1,0.3-0.3c0-0.2-0.1-0.3-0.3-0.3c-0.2,0-0.3,0.1-0.3,0.3C28,42.1,28.2,42.2,28.4,42.2z"/>
<path d="M27.6,41.1c0.2,0,0.3-0.1,0.3-0.3s-0.1-0.3-0.3-0.3c-0.2,0-0.3,0.1-0.3,0.3S27.4,41.1,27.6,41.1z"/>
<path d="M18.4,22.4c0.2,0,0.3-0.1,0.3-0.3c0-0.2-0.1-0.3-0.3-0.3c-0.2,0-0.3,0.1-0.3,0.3C18.1,22.3,18.2,22.4,18.4,22.4z"/>
<circle cx="18" cy="20.8" r="0.3"/>
<path d="M17.6,19.8c0.2,0,0.3-0.1,0.3-0.3c0-0.2-0.1-0.3-0.3-0.3c-0.2,0-0.3,0.1-0.3,0.3C17.2,19.6,17.4,19.8,17.6,19.8z"/>
<path d="M15.3,10.3c0.2,0,0.3-0.1,0.3-0.3c0-0.2-0.1-0.3-0.3-0.3C15.1,9.7,15,9.8,15,10C15,10.2,15.1,10.3,15.3,10.3z"/>
<path d="M15.1,8.9c0.2,0,0.3-0.1,0.3-0.3c0-0.2-0.1-0.3-0.3-0.3c-0.2,0-0.3,0.1-0.3,0.3C14.8,8.8,14.9,8.9,15.1,8.9z"/>
<path d="M14.9,7.6c0.2,0,0.3-0.1,0.3-0.3c0-0.2-0.1-0.3-0.3-0.3c-0.2,0-0.3,0.1-0.3,0.3C14.6,7.4,14.7,7.6,14.9,7.6z"/>
<path d="M14.7,6.2C14.9,6.2,15,6,15,5.9c0-0.2-0.1-0.3-0.3-0.3c-0.2,0-0.3,0.1-0.3,0.3C14.4,6,14.5,6.2,14.7,6.2z"/>
<path d="M14.6,4.8c0.2,0,0.3-0.1,0.3-0.3c0-0.2-0.1-0.3-0.3-0.3c-0.2,0-0.3,0.1-0.3,0.3C14.2,4.7,14.4,4.8,14.6,4.8z"/>
<path d="M14.4,3.4c0.2,0,0.3-0.1,0.3-0.3c0-0.2-0.1-0.3-0.3-0.3c-0.2,0-0.3,0.1-0.3,0.3C14.1,3.3,14.2,3.4,14.4,3.4z"/>
<path d="M14.3,2c0.2,0,0.3-0.1,0.3-0.3c0-0.2-0.1-0.3-0.3-0.3c-0.2,0-0.3,0.1-0.3,0.3C14,1.9,14.1,2,14.3,2z"/>
<path d="M14.2,0.7c0.2,0,0.3-0.1,0.3-0.3c0-0.2-0.1-0.3-0.3-0.3c-0.2,0-0.3,0.1-0.3,0.3C13.9,0.5,14.1,0.7,14.2,0.7z"/>
<path d="M33.8,51.6c0.2,0,0.3-0.1,0.3-0.3c0-0.2-0.1-0.3-0.3-0.3c-0.2,0-0.3,0.1-0.3,0.3C33.5,51.4,33.7,51.6,33.8,51.6z"/>
<path d="M32.9,50.6c0.2,0,0.3-0.1,0.3-0.3c0-0.2-0.1-0.3-0.3-0.3c-0.2,0-0.3,0.1-0.3,0.3C32.6,50.4,32.7,50.6,32.9,50.6z"/>
<circle cx="32" cy="49.2" r="0.3"/>
<path d="M31.1,48.4c0.2,0,0.3-0.1,0.3-0.3c0-0.2-0.1-0.3-0.3-0.3c-0.2,0-0.3,0.1-0.3,0.3C30.8,48.3,30.9,48.4,31.1,48.4z"/>
<path d="M30.3,47.4c0.2,0,0.3-0.1,0.3-0.3c0-0.2-0.1-0.3-0.3-0.3c-0.2,0-0.3,0.1-0.3,0.3C29.9,47.2,30.1,47.4,30.3,47.4z"/>
<path d="M29.4,46.3c0.2,0,0.3-0.1,0.3-0.3c0-0.2-0.1-0.3-0.3-0.3c-0.2,0-0.3,0.1-0.3,0.3C29.1,46.1,29.2,46.3,29.4,46.3z"/>
<path d="M28.6,45.1c0.2,0,0.3-0.1,0.3-0.3c0-0.2-0.1-0.3-0.3-0.3c-0.2,0-0.3,0.1-0.3,0.3C28.2,45,28.4,45.1,28.6,45.1z"/>
<path d="M27.8,44c0.2,0,0.3-0.1,0.3-0.3c0-0.2-0.1-0.3-0.3-0.3c-0.2,0-0.3,0.1-0.3,0.3C27.4,43.9,27.6,44,27.8,44z"/>
<path d="M27,42.9c0.2,0,0.3-0.1,0.3-0.3c0-0.2-0.1-0.3-0.3-0.3c-0.2,0-0.3,0.1-0.3,0.3C26.6,42.7,26.8,42.9,27,42.9z"/>
<path d="M26.2,41.7c0.2,0,0.3-0.1,0.3-0.3c0-0.2-0.1-0.3-0.3-0.3c-0.2,0-0.3,0.1-0.3,0.3C25.9,41.6,26,41.7,26.2,41.7z"/>
<path d="M25.4,40.6c0.2,0,0.3-0.1,0.3-0.3c0-0.2-0.1-0.3-0.3-0.3c-0.2,0-0.3,0.1-0.3,0.3C25.1,40.4,25.2,40.6,25.4,40.6z"/>
<path d="M13.4,8.3c0.2,0,0.3-0.1,0.3-0.3c0-0.2-0.1-0.3-0.3-0.3c-0.2,0-0.3,0.1-0.3,0.3C13.1,8.1,13.2,8.3,13.4,8.3z"/>
<circle cx="13.2" cy="6.6" r="0.3"/>
<path d="M13.1,5.5c0.2,0,0.3-0.1,0.3-0.3c0-0.2-0.1-0.3-0.3-0.3c-0.2,0-0.3,0.1-0.3,0.3C12.7,5.4,12.9,5.5,13.1,5.5z"/>
<path d="M12.9,4.1c0.2,0,0.3-0.1,0.3-0.3c0-0.2-0.1-0.3-0.3-0.3c-0.2,0-0.3,0.1-0.3,0.3C12.6,4,12.8,4.1,12.9,4.1z"/>
<circle cx="12.8" cy="2.4" r="0.3"/>
<circle cx="12.7" cy="1" r="0.3"/>
<path d="M34.3,54.3c0.2,0,0.3-0.1,0.3-0.3c0-0.2-0.1-0.3-0.3-0.3c-0.2,0-0.3,0.1-0.3,0.3C34,54.2,34.1,54.3,34.3,54.3z"/>
<path d="M33.3,53.3c0.2,0,0.3-0.1,0.3-0.3c0-0.2-0.1-0.3-0.3-0.3c-0.2,0-0.3,0.1-0.3,0.3C33,53.2,33.2,53.3,33.3,53.3z"/>
<path d="M32.4,52.3c0.2,0,0.3-0.1,0.3-0.3c0-0.2-0.1-0.3-0.3-0.3c-0.2,0-0.3,0.1-0.3,0.3C32.1,52.2,32.2,52.3,32.4,52.3z"/>
<path d="M31.5,51.3c0.2,0,0.3-0.1,0.3-0.3c0-0.2-0.1-0.3-0.3-0.3c-0.2,0-0.3,0.1-0.3,0.3C31.2,51.1,31.3,51.3,31.5,51.3z"/>
<path d="M30.6,50.2c0.2,0,0.3-0.1,0.3-0.3c0-0.2-0.1-0.3-0.3-0.3c-0.2,0-0.3,0.1-0.3,0.3C30.3,50.1,30.4,50.2,30.6,50.2z"/>
<path d="M29.7,49.1c0.2,0,0.3-0.1,0.3-0.3c0-0.2-0.1-0.3-0.3-0.3c-0.2,0-0.3,0.1-0.3,0.3C29.4,49,29.5,49.1,29.7,49.1z"/>
<path d="M28.8,48c0.2,0,0.3-0.1,0.3-0.3c0-0.2-0.1-0.3-0.3-0.3c-0.2,0-0.3,0.1-0.3,0.3C28.5,47.9,28.7,48,28.8,48z"/>
<circle cx="28" cy="46.6" r="0.3"/>
<path d="M27.2,45.8c0.2,0,0.3-0.1,0.3-0.3c0-0.2-0.1-0.3-0.3-0.3c-0.2,0-0.3,0.1-0.3,0.3C26.8,45.7,27,45.8,27.2,45.8z"/>
<path d="M26.3,44.7c0.2,0,0.3-0.1,0.3-0.3c0-0.2-0.1-0.3-0.3-0.3c-0.2,0-0.3,0.1-0.3,0.3C26,44.6,26.2,44.7,26.3,44.7z"/>
<path d="M25.6,43.6c0.2,0,0.3-0.1,0.3-0.3c0-0.2-0.1-0.3-0.3-0.3c-0.2,0-0.3,0.1-0.3,0.3C25.2,43.4,25.4,43.6,25.6,43.6z"/>
<path d="M11.8,7.6c0.2,0,0.3-0.1,0.3-0.3c0-0.2-0.1-0.3-0.3-0.3c-0.2,0-0.3,0.1-0.3,0.3C11.4,7.4,11.6,7.6,11.8,7.6z"/>
<path d="M11.6,6.2c0.2,0,0.3-0.1,0.3-0.3c0-0.2-0.1-0.3-0.3-0.3c-0.2,0-0.3,0.1-0.3,0.3C11.3,6,11.4,6.2,11.6,6.2z"/>
<path d="M11.5,4.8c0.2,0,0.3-0.1,0.3-0.3c0-0.2-0.1-0.3-0.3-0.3c-0.2,0-0.3,0.1-0.3,0.3C11.1,4.7,11.3,4.8,11.5,4.8z"/>
<path d="M11.3,3.4c0.2,0,0.3-0.1,0.3-0.3c0-0.2-0.1-0.3-0.3-0.3c-0.2,0-0.3,0.1-0.3,0.3C11,3.3,11.1,3.4,11.3,3.4z"/>
<path d="M11.2,2c0.2,0,0.3-0.1,0.3-0.3c0-0.2-0.1-0.3-0.3-0.3c-0.2,0-0.3,0.1-0.3,0.3C10.9,1.9,11,2,11.2,2z"/>
<path d="M11.1,0.7c0.2,0,0.3-0.1,0.3-0.3c0-0.2-0.1-0.3-0.3-0.3c-0.2,0-0.3,0.1-0.3,0.3C10.8,0.5,11,0.7,11.1,0.7z"/>
<path d="M32.8,55.1c0.2,0,0.3-0.1,0.3-0.3c0-0.2-0.1-0.3-0.3-0.3c-0.2,0-0.3,0.1-0.3,0.3C32.5,54.9,32.7,55.1,32.8,55.1z"/>
<path d="M31.9,54c0.2,0,0.3-0.1,0.3-0.3c0-0.2-0.1-0.3-0.3-0.3c-0.2,0-0.3,0.1-0.3,0.3C31.6,53.9,31.7,54,31.9,54z"/>
<path d="M31,53c0.2,0,0.3-0.1,0.3-0.3c0-0.2-0.1-0.3-0.3-0.3c-0.2,0-0.3,0.1-0.3,0.3C30.6,52.9,30.8,53,31,53z"/>
<path d="M30,52c0.2,0,0.3-0.1,0.3-0.3c0-0.2-0.1-0.3-0.3-0.3c-0.2,0-0.3,0.1-0.3,0.3C29.7,51.8,29.9,52,30,52z"/>
<path d="M29.2,50.9c0.2,0,0.3-0.1,0.3-0.3c0-0.2-0.1-0.3-0.3-0.3c-0.2,0-0.3,0.1-0.3,0.3C28.8,50.8,29,50.9,29.2,50.9z"/>
<path d="M28.3,49.8c0.2,0,0.3-0.1,0.3-0.3c0-0.2-0.1-0.3-0.3-0.3c-0.2,0-0.3,0.1-0.3,0.3C27.9,49.7,28.1,49.8,28.3,49.8z"/>
<path d="M27.4,48.7c0.2,0,0.3-0.1,0.3-0.3c0-0.2-0.1-0.3-0.3-0.3c-0.2,0-0.3,0.1-0.3,0.3C27.1,48.6,27.2,48.7,27.4,48.7z"/>
<path d="M26.6,47.6c0.2,0,0.3-0.1,0.3-0.3c0-0.2-0.1-0.3-0.3-0.3c-0.2,0-0.3,0.1-0.3,0.3C26.2,47.5,26.4,47.6,26.6,47.6z"/>
<path d="M25.7,46.5c0.2,0,0.3-0.1,0.3-0.3c0-0.2-0.1-0.3-0.3-0.3c-0.2,0-0.3,0.1-0.3,0.3C25.4,46.4,25.6,46.5,25.7,46.5z"/>
<path d="M10,5.5c0.2,0,0.3-0.1,0.3-0.3c0-0.2-0.1-0.3-0.3-0.3C9.8,4.8,9.6,5,9.6,5.2C9.6,5.4,9.8,5.5,10,5.5z"/>
<path d="M9.8,4.1c0.2,0,0.3-0.1,0.3-0.3c0-0.2-0.1-0.3-0.3-0.3c-0.2,0-0.3,0.1-0.3,0.3C9.5,4,9.6,4.1,9.8,4.1z"/>
<path d="M9.7,2.7c0.2,0,0.3-0.1,0.3-0.3c0-0.2-0.1-0.3-0.3-0.3c-0.2,0-0.3,0.1-0.3,0.3C9.4,2.6,9.5,2.7,9.7,2.7z"/>
<path d="M32.3,56.8c0.2,0,0.3-0.1,0.3-0.3c0-0.2-0.1-0.3-0.3-0.3c-0.2,0-0.3,0.1-0.3,0.3C32,56.6,32.2,56.8,32.3,56.8z"/>
<circle cx="31.4" cy="55.4" r="0.3"/>
<path d="M30.4,54.7c0.2,0,0.3-0.1,0.3-0.3c0-0.2-0.1-0.3-0.3-0.3c-0.2,0-0.3,0.1-0.3,0.3C30.1,54.6,30.3,54.7,30.4,54.7z"/>
<path d="M29.5,53.7c0.2,0,0.3-0.1,0.3-0.3c0-0.2-0.1-0.3-0.3-0.3c-0.2,0-0.3,0.1-0.3,0.3C29.2,53.6,29.3,53.7,29.5,53.7z"/>
<path d="M28.6,52.7c0.2,0,0.3-0.1,0.3-0.3c0-0.2-0.1-0.3-0.3-0.3c-0.2,0-0.3,0.1-0.3,0.3C28.3,52.5,28.4,52.7,28.6,52.7z"/>
<path d="M27.7,51.6c0.2,0,0.3-0.1,0.3-0.3c0-0.2-0.1-0.3-0.3-0.3c-0.2,0-0.3,0.1-0.3,0.3C27.4,51.5,27.5,51.6,27.7,51.6z"/>
<path d="M26.8,50.5c0.2,0,0.3-0.1,0.3-0.3c0-0.2-0.1-0.3-0.3-0.3c-0.2,0-0.3,0.1-0.3,0.3C26.5,50.4,26.7,50.5,26.8,50.5z"/>
<path d="M26,49.4c0.2,0,0.3-0.1,0.3-0.3c0-0.2-0.1-0.3-0.3-0.3c-0.2,0-0.3,0.1-0.3,0.3C25.7,49.3,25.8,49.4,26,49.4z"/>
<path d="M25.1,48.3c0.2,0,0.3-0.1,0.3-0.3c0-0.2-0.1-0.3-0.3-0.3c-0.2,0-0.3,0.1-0.3,0.3C24.8,48.2,25,48.3,25.1,48.3z"/>
<path d="M8.3,4.8c0.2,0,0.3-0.1,0.3-0.3c0-0.2-0.1-0.3-0.3-0.3S8,4.3,8,4.5C8,4.7,8.2,4.8,8.3,4.8z"/>
<path d="M8.2,3.4c0.2,0,0.3-0.1,0.3-0.3c0-0.2-0.1-0.3-0.3-0.3C8,2.8,7.9,2.9,7.9,3.1C7.9,3.3,8,3.4,8.2,3.4z"/>
<path d="M8.1,2c0.2,0,0.3-0.1,0.3-0.3c0-0.2-0.1-0.3-0.3-0.3c-0.2,0-0.3,0.1-0.3,0.3C7.8,1.9,7.9,2,8.1,2z"/>
<path d="M8,0.7c0.2,0,0.3-0.1,0.3-0.3C8.4,0.1,8.2,0,8,0C7.9,0,7.7,0.1,7.7,0.3C7.7,0.5,7.9,0.7,8,0.7z"/>
<path d="M30.9,57.5c0.2,0,0.3-0.1,0.3-0.3c0-0.2-0.1-0.3-0.3-0.3c-0.2,0-0.3,0.1-0.3,0.3C30.6,57.3,30.7,57.5,30.9,57.5z"/>
<circle cx="29.9" cy="56.2" r="0.3"/>
<path d="M29,55.5c0.2,0,0.3-0.1,0.3-0.3c0-0.2-0.1-0.3-0.3-0.3c-0.2,0-0.3,0.1-0.3,0.3C28.7,55.3,28.8,55.5,29,55.5z"/>
<path d="M28.1,54.4c0.2,0,0.3-0.1,0.3-0.3c0-0.2-0.1-0.3-0.3-0.3c-0.2,0-0.3,0.1-0.3,0.3C27.8,54.3,27.9,54.4,28.1,54.4z"/>
<circle cx="27.2" cy="53" r="0.3"/>
<path d="M26.3,52.3c0.2,0,0.3-0.1,0.3-0.3c0-0.2-0.1-0.3-0.3-0.3c-0.2,0-0.3,0.1-0.3,0.3C26,52.1,26.1,52.3,26.3,52.3z"/>
<path d="M25.4,51.2c0.2,0,0.3-0.1,0.3-0.3c0-0.2-0.1-0.3-0.3-0.3c-0.2,0-0.3,0.1-0.3,0.3C25.1,51.1,25.2,51.2,25.4,51.2z"/>
<circle cx="24.6" cy="49.8" r="0.3"/>
<path d="M6.7,4.1c0.2,0,0.3-0.1,0.3-0.3c0-0.2-0.1-0.3-0.3-0.3c-0.2,0-0.3,0.1-0.3,0.3C6.4,4,6.5,4.1,6.7,4.1z"/>
<path d="M6.6,2.7c0.2,0,0.3-0.1,0.3-0.3c0-0.2-0.1-0.3-0.3-0.3S6.3,2.2,6.3,2.4C6.3,2.6,6.4,2.7,6.6,2.7z"/>
<circle cx="6.5" cy="1" r="0.3"/>
<circle cx="31.4" cy="59.9" r="0.3"/>
<path d="M30.4,59.2c0.2,0,0.3-0.1,0.3-0.3c0-0.2-0.1-0.3-0.3-0.3c-0.2,0-0.3,0.1-0.3,0.3C30.1,59.1,30.2,59.2,30.4,59.2z"/>
<path d="M29.4,58.2c0.2,0,0.3-0.1,0.3-0.3c0-0.2-0.1-0.3-0.3-0.3c-0.2,0-0.3,0.1-0.3,0.3C29.1,58.1,29.3,58.2,29.4,58.2z"/>
<path d="M28.5,57.2c0.2,0,0.3-0.1,0.3-0.3c0-0.2-0.1-0.3-0.3-0.3c-0.2,0-0.3,0.1-0.3,0.3C28.2,57,28.3,57.2,28.5,57.2z"/>
<path d="M27.6,56.2c0.2,0,0.3-0.1,0.3-0.3c0-0.2-0.1-0.3-0.3-0.3c-0.2,0-0.3,0.1-0.3,0.3C27.2,56,27.4,56.2,27.6,56.2z"/>
<path d="M26.6,55.1c0.2,0,0.3-0.1,0.3-0.3c0-0.2-0.1-0.3-0.3-0.3c-0.2,0-0.3,0.1-0.3,0.3C26.3,55,26.5,55.1,26.6,55.1z"/>
<path d="M25.7,54.1c0.2,0,0.3-0.1,0.3-0.3c0-0.2-0.1-0.3-0.3-0.3c-0.2,0-0.3,0.1-0.3,0.3C25.4,53.9,25.6,54.1,25.7,54.1z"/>
<path d="M24.9,53c0.2,0,0.3-0.1,0.3-0.3c0-0.2-0.1-0.3-0.3-0.3c-0.2,0-0.3,0.1-0.3,0.3C24.5,52.8,24.7,53,24.9,53z"/>
<path d="M24,51.9c0.2,0,0.3-0.1,0.3-0.3c0-0.2-0.1-0.3-0.3-0.3c-0.2,0-0.3,0.1-0.3,0.3C23.7,51.8,23.8,51.9,24,51.9z"/>
<path d="M5.1,3.4c0.2,0,0.3-0.1,0.3-0.3c0-0.2-0.1-0.3-0.3-0.3c-0.2,0-0.3,0.1-0.3,0.3C4.8,3.3,4.9,3.4,5.1,3.4z"/>
<circle cx="5" cy="1.7" r="0.3"/>
<path d="M4.9,0.7c0.2,0,0.3-0.1,0.3-0.3C5.3,0.1,5.1,0,4.9,0C4.8,0,4.6,0.1,4.6,0.3C4.6,0.5,4.8,0.7,4.9,0.7z"/>
<path d="M29.9,60.9c0.2,0,0.3-0.1,0.3-0.3c0-0.2-0.1-0.3-0.3-0.3c-0.2,0-0.3,0.1-0.3,0.3C29.6,60.8,29.7,60.9,29.9,60.9z"/>
<path d="M28.9,59.9c0.2,0,0.3-0.1,0.3-0.3c0-0.2-0.1-0.3-0.3-0.3c-0.2,0-0.3,0.1-0.3,0.3C28.6,59.8,28.8,59.9,28.9,59.9z"/>
<path d="M28,58.9c0.2,0,0.3-0.1,0.3-0.3c0-0.2-0.1-0.3-0.3-0.3s-0.3,0.1-0.3,0.3C27.7,58.8,27.8,58.9,28,58.9z"/>
<path d="M27,57.9c0.2,0,0.3-0.1,0.3-0.3c0-0.2-0.1-0.3-0.3-0.3c-0.2,0-0.3,0.1-0.3,0.3C26.7,57.8,26.9,57.9,27,57.9z"/>
<path d="M26.1,56.9c0.2,0,0.3-0.1,0.3-0.3c0-0.2-0.1-0.3-0.3-0.3c-0.2,0-0.3,0.1-0.3,0.3C25.8,56.7,25.9,56.9,26.1,56.9z"/>
<circle cx="25.2" cy="55.5" r="0.3"/>
<path d="M24.3,54.8c0.2,0,0.3-0.1,0.3-0.3c0-0.2-0.1-0.3-0.3-0.3c-0.2,0-0.3,0.1-0.3,0.3C24,54.6,24.1,54.8,24.3,54.8z"/>
<path d="M3.6,4.1c0.2,0,0.3-0.1,0.3-0.3c0-0.2-0.1-0.3-0.3-0.3c-0.2,0-0.3,0.1-0.3,0.3C3.3,4,3.4,4.1,3.6,4.1z"/>
<path d="M3.5,2.7c0.2,0,0.3-0.1,0.3-0.3c0-0.2-0.1-0.3-0.3-0.3c-0.2,0-0.3,0.1-0.3,0.3C3.2,2.6,3.3,2.7,3.5,2.7z"/>
<path d="M3.4,1.4c0.2,0,0.3-0.1,0.3-0.3c0-0.2-0.1-0.3-0.3-0.3C3.2,0.7,3.1,0.8,3.1,1C3.1,1.2,3.2,1.4,3.4,1.4z"/>
<circle cx="29.4" cy="62.3" r="0.3"/>
<path d="M28.5,61.6c0.2,0,0.3-0.1,0.3-0.3c0-0.2-0.1-0.3-0.3-0.3c-0.2,0-0.3,0.1-0.3,0.3C28.1,61.5,28.3,61.6,28.5,61.6z"/>
<path d="M27.5,60.7c0.2,0,0.3-0.1,0.3-0.3c0-0.2-0.1-0.3-0.3-0.3c-0.2,0-0.3,0.1-0.3,0.3C27.2,60.5,27.3,60.7,27.5,60.7z"/>
<path d="M26.5,59.6c0.2,0,0.3-0.1,0.3-0.3c0-0.2-0.1-0.3-0.3-0.3c-0.2,0-0.3,0.1-0.3,0.3C26.2,59.5,26.4,59.6,26.5,59.6z"/>
<path d="M25.6,58.6c0.2,0,0.3-0.1,0.3-0.3c0-0.2-0.1-0.3-0.3-0.3c-0.2,0-0.3,0.1-0.3,0.3C25.3,58.5,25.4,58.6,25.6,58.6z"/>
<path d="M24.7,57.6c0.2,0,0.3-0.1,0.3-0.3c0-0.2-0.1-0.3-0.3-0.3c-0.2,0-0.3,0.1-0.3,0.3C24.3,57.4,24.5,57.6,24.7,57.6z"/>
<path d="M23.8,56.5c0.2,0,0.3-0.1,0.3-0.3c0-0.2-0.1-0.3-0.3-0.3c-0.2,0-0.3,0.1-0.3,0.3C23.4,56.4,23.6,56.5,23.8,56.5z"/>
<path d="M1.9,2c0.2,0,0.3-0.1,0.3-0.3c0-0.2-0.1-0.3-0.3-0.3c-0.2,0-0.3,0.1-0.3,0.3C1.6,1.9,1.7,2,1.9,2z"/>
<path d="M1.8,0.7c0.2,0,0.3-0.1,0.3-0.3C2.2,0.1,2,0,1.8,0C1.7,0,1.5,0.1,1.5,0.3C1.5,0.5,1.7,0.7,1.8,0.7z"/>
<circle cx="32" cy="66.8" r="0.3"/>
<path d="M29,64.3c0.2,0,0.3-0.1,0.3-0.3c0-0.2-0.1-0.3-0.3-0.3c-0.2,0-0.3,0.1-0.3,0.3C28.6,64.2,28.8,64.3,29,64.3z"/>
<path d="M28,63.4c0.2,0,0.3-0.1,0.3-0.3c0-0.2-0.1-0.3-0.3-0.3c-0.2,0-0.3,0.1-0.3,0.3C27.6,63.2,27.8,63.4,28,63.4z"/>
<path d="M27,62.4c0.2,0,0.3-0.1,0.3-0.3c0-0.2-0.1-0.3-0.3-0.3c-0.2,0-0.3,0.1-0.3,0.3C26.7,62.2,26.8,62.4,27,62.4z"/>
<circle cx="26" cy="61" r="0.3"/>
<path d="M25.1,60.4c0.2,0,0.3-0.1,0.3-0.3c0-0.2-0.1-0.3-0.3-0.3c-0.2,0-0.3,0.1-0.3,0.3C24.8,60.2,24.9,60.4,25.1,60.4z"/>
<path d="M24.2,59.3c0.2,0,0.3-0.1,0.3-0.3c0-0.2-0.1-0.3-0.3-0.3c-0.2,0-0.3,0.1-0.3,0.3C23.8,59.2,24,59.3,24.2,59.3z"/>
<path d="M23.2,58.3c0.2,0,0.3-0.1,0.3-0.3c0-0.2-0.1-0.3-0.3-0.3c-0.2,0-0.3,0.1-0.3,0.3C22.9,58.1,23.1,58.3,23.2,58.3z"/>
<circle cx="0.4" cy="2.4" r="0.3"/>
<circle cx="0.3" cy="1" r="0.3"/>
<path d="M30.5,67.9c0.2,0,0.3-0.1,0.3-0.3c0-0.2-0.1-0.3-0.3-0.3c-0.2,0-0.3,0.1-0.3,0.3C30.2,67.8,30.4,67.9,30.5,67.9z"/>
<path d="M29.5,67c0.2,0,0.3-0.1,0.3-0.3c0-0.2-0.1-0.3-0.3-0.3c-0.2,0-0.3,0.1-0.3,0.3C29.2,66.8,29.3,67,29.5,67z"/>
<path d="M28.5,66c0.2,0,0.3-0.1,0.3-0.3c0-0.2-0.1-0.3-0.3-0.3c-0.2,0-0.3,0.1-0.3,0.3C28.2,65.9,28.3,66,28.5,66z"/>
<path d="M27.5,65.1c0.2,0,0.3-0.1,0.3-0.3c0-0.2-0.1-0.3-0.3-0.3c-0.2,0-0.3,0.1-0.3,0.3C27.2,64.9,27.3,65.1,27.5,65.1z"/>
<path d="M26.5,64.1c0.2,0,0.3-0.1,0.3-0.3c0-0.2-0.1-0.3-0.3-0.3c-0.2,0-0.3,0.1-0.3,0.3C26.2,63.9,26.3,64.1,26.5,64.1z"/>
<path d="M25.5,63.1c0.2,0,0.3-0.1,0.3-0.3c0-0.2-0.1-0.3-0.3-0.3c-0.2,0-0.3,0.1-0.3,0.3C25.2,62.9,25.4,63.1,25.5,63.1z"/>
<path d="M24.6,62.1c0.2,0,0.3-0.1,0.3-0.3c0-0.2-0.1-0.3-0.3-0.3c-0.2,0-0.3,0.1-0.3,0.3C24.3,61.9,24.4,62.1,24.6,62.1z"/>
<path d="M23.6,61.1c0.2,0,0.3-0.1,0.3-0.3c0-0.2-0.1-0.3-0.3-0.3c-0.2,0-0.3,0.1-0.3,0.3C23.3,60.9,23.5,61.1,23.6,61.1z"/>
<path d="M22.7,60c0.2,0,0.3-0.1,0.3-0.3c0-0.2-0.1-0.3-0.3-0.3c-0.2,0-0.3,0.1-0.3,0.3C22.4,59.9,22.5,60,22.7,60z"/>
<path d="M30.1,69.6c0.2,0,0.3-0.1,0.3-0.3c0-0.2-0.1-0.3-0.3-0.3c-0.2,0-0.3,0.1-0.3,0.3C29.8,69.4,29.9,69.6,30.1,69.6z"/>
<path d="M29.1,68.7c0.2,0,0.3-0.1,0.3-0.3c0-0.2-0.1-0.3-0.3-0.3c-0.2,0-0.3,0.1-0.3,0.3C28.7,68.5,28.9,68.7,29.1,68.7z"/>
<path d="M28,67.7c0.2,0,0.3-0.1,0.3-0.3c0-0.2-0.1-0.3-0.3-0.3c-0.2,0-0.3,0.1-0.3,0.3C27.7,67.6,27.8,67.7,28,67.7z"/>
<circle cx="27" cy="66.4" r="0.3"/>
<circle cx="26" cy="65.5" r="0.3"/>
<path d="M25,64.8c0.2,0,0.3-0.1,0.3-0.3c0-0.2-0.1-0.3-0.3-0.3c-0.2,0-0.3,0.1-0.3,0.3C24.7,64.7,24.9,64.8,25,64.8z"/>
<path d="M24.1,63.8c0.2,0,0.3-0.1,0.3-0.3c0-0.2-0.1-0.3-0.3-0.3c-0.2,0-0.3,0.1-0.3,0.3C23.8,63.7,23.9,63.8,24.1,63.8z"/>
<path d="M23.1,62.8c0.2,0,0.3-0.1,0.3-0.3c0-0.2-0.1-0.3-0.3-0.3c-0.2,0-0.3,0.1-0.3,0.3C22.8,62.7,22.9,62.8,23.1,62.8z"/>
<path d="M27.6,69.4c0.2,0,0.3-0.1,0.3-0.3c0-0.2-0.1-0.3-0.3-0.3c-0.2,0-0.3,0.1-0.3,0.3C27.2,69.3,27.4,69.4,27.6,69.4z"/>
<path d="M25.6,67.5c0.2,0,0.3-0.1,0.3-0.3c0-0.2-0.1-0.3-0.3-0.3c-0.2,0-0.3,0.1-0.3,0.3C25.2,67.3,25.4,67.5,25.6,67.5z"/>
<path d="M24.6,66.5c0.2,0,0.3-0.1,0.3-0.3c0-0.2-0.1-0.3-0.3-0.3c-0.2,0-0.3,0.1-0.3,0.3C24.2,66.4,24.4,66.5,24.6,66.5z"/>
</svg>
